<svg width="258" height="400" viewBox="0 0 258 400" fill="none" xmlns="http://www.w3.org/2000/svg">
<path d="M16.7261 3.32156C4.19273 9.58822 -1.5406 22.9216 2.4594 36.5216C3.92606 41.4549 6.32606 44.9216 11.5261 49.9882C15.3927 53.7216 55.9261 88.6549 101.659 127.722C147.259 166.788 184.593 199.055 184.459 199.588C184.459 200.122 147.526 231.988 102.459 270.522C-1.1406 358.922 3.79273 354.388 1.2594 362.922C-5.9406 387.055 19.1261 408.122 40.9927 396.388C48.8594 392.122 247.526 221.722 252.059 215.322C260.593 203.322 258.859 189.188 247.659 178.255C244.193 174.922 196.726 134.122 142.326 87.5882C68.1927 24.1216 42.1927 2.65489 38.1927 1.45489C30.1927 -0.945112 24.4594 -0.411777 16.7261 3.32156Z" fill="#F6F6F6"/>
</svg>
