<svg width="38" height="38" viewBox="0 0 38 38" fill="none" xmlns="http://www.w3.org/2000/svg">
<g clip-path="url(#clip0_103_49)">
<path d="M20.2914 0.0741863C20.2023 0.103874 20.0613 0.230045 19.9723 0.341373L19.8164 0.541765V8.31989V16.1054L20.0316 16.3429L20.2469 16.5879L27.9211 16.6101C33.1387 16.625 35.677 16.6101 35.8551 16.5507C36.3227 16.4172 36.4043 16.2019 36.382 15.2148C36.293 11.348 34.5859 7.48122 31.7137 4.6238C30.4148 3.33239 28.9156 2.27848 27.2383 1.4695C26.3848 1.0613 24.6406 0.497234 23.6387 0.304264C22.2434 0.037077 20.6477 -0.0742512 20.2914 0.0741863ZM23.3047 1.86286C27.2086 2.657 30.4668 4.88356 32.6191 8.23825C33.3984 9.44802 34.1926 11.3703 34.482 12.7285C34.5934 13.2406 34.8012 14.6804 34.8086 14.9328C34.8086 15.059 34.4375 15.0664 28.0918 15.0664H21.375V8.34216V1.61052L21.991 1.66989C22.325 1.69216 22.9187 1.78122 23.3047 1.86286Z" fill="#21C25E"/>
<path d="M15.5117 3.27304C12.8398 3.56992 10.1308 4.54961 7.9117 6.01171C1.63279 10.1531 -1.28401 17.6492 0.556617 24.9078C1.14294 27.216 2.22654 29.398 3.77029 31.3945C4.40115 32.2035 5.79646 33.5988 6.60544 34.2297C8.60193 35.7734 10.784 36.857 13.0922 37.4434C14.6953 37.8516 15.6304 37.9629 17.4414 37.9555C19.2449 37.9555 20.1281 37.8516 21.709 37.4434C24.8261 36.6418 27.7207 34.9645 29.8953 32.6934C30.5855 31.9809 30.7711 31.6617 30.6968 31.35C30.6597 31.1941 28.7969 29.2867 24.4105 24.9004L18.1836 18.666V11.1551V3.65156L17.9535 3.42148L17.7234 3.1914L16.8996 3.19882C16.4394 3.20625 15.816 3.23593 15.5117 3.27304ZM16.625 11.9566C16.625 17.0629 16.6472 19.2078 16.7066 19.3191C16.7511 19.4082 19.4972 22.1988 22.8148 25.5164L28.834 31.5504L28.2402 32.107C23.9949 36.0852 17.9238 37.4211 12.4242 35.5879C7.72615 34.0293 3.97068 30.2738 2.41209 25.5758C0.645679 20.284 1.78123 14.5469 5.44021 10.2719C6.14529 9.45547 6.91716 8.7207 7.79294 8.03789C10.0047 6.32343 13.0254 5.11367 15.8086 4.83164C16.1574 4.80195 16.484 4.76484 16.5359 4.75742C16.6027 4.75 16.625 6.23437 16.625 11.9566Z" fill="#21C25E"/>
<path d="M21.9094 18.2652C21.6422 18.3469 21.375 18.7031 21.375 18.9851C21.375 19.0816 21.4195 19.2449 21.4789 19.3562C21.5383 19.4676 24.0172 21.9836 26.9934 24.9523C31.2312 29.1754 32.4484 30.3555 32.6266 30.3926C33.0051 30.4668 33.3316 30.2738 33.8883 29.643C36.3078 26.8894 37.6512 23.7797 37.9406 20.2394C37.9852 19.6605 38 19.0594 37.9703 18.8961C37.9035 18.5621 37.6437 18.2949 37.3246 18.2281C36.9387 18.1539 22.184 18.191 21.9094 18.2652ZM36.3301 20.425C36.1668 22.3621 35.4914 24.4254 34.4672 26.1844C34.0813 26.8375 33.0793 28.2328 32.8641 28.4109C32.7824 28.4777 31.8992 27.6316 28.4258 24.1582L24.084 19.8164H30.2367H36.3895L36.3301 20.425Z" fill="#21C25E"/>
</g>
<defs>
<clipPath id="clip0_103_49">
<rect width="38" height="38" fill="white"/>
</clipPath>
</defs>
</svg>
