<svg width="33" height="33" viewBox="0 0 33 33" fill="none" xmlns="http://www.w3.org/2000/svg">
<circle cx="16.5" cy="16.5" r="16.5" fill="#FFEF38"/>
<g clip-path="url(#clip0_21_76)">
<path fill-rule="evenodd" clip-rule="evenodd" d="M7.1001 7.09952H25.8999V25.9005H7.1001V7.09952Z" fill="#FFEF38"/>
<path fill-rule="evenodd" clip-rule="evenodd" d="M15.0441 19.9885L13.5088 18.9534L20.8089 14.0068L16.3021 10.9612L14.1824 12.3944L15.8266 13.4892L12.033 16.0372L8.85345 13.9272L16.5101 8.80145L24.1073 13.9073L15.0441 19.9885ZM17.9265 12.9717L19.4618 14.0068L12.1617 18.9534L16.6785 21.9989L18.7981 20.5657L17.1539 19.4809L20.9575 16.9329L24.137 19.0429L16.4605 24.1587L8.88316 19.0728L17.9265 12.9717ZM11.9735 22.1283L10.4085 21.0534L8.82373 22.1283L8.84354 24.1985L11.9735 22.1283ZM21.0664 10.9115L22.6413 11.9864L24.1766 10.9612V8.84126L21.0664 10.9115Z" fill="#003DA4"/>
</g>
<defs>
<clipPath id="clip0_21_76">
<rect width="19" height="19" fill="white" transform="translate(7 7)"/>
</clipPath>
</defs>
</svg>
