<svg width="26" height="26" viewBox="0 0 26 26" fill="none" xmlns="http://www.w3.org/2000/svg">
<path d="M3.75771 2.93009C3.6206 2.98087 3.42763 3.11798 3.27529 3.27032C2.80302 3.73751 2.84365 2.93517 2.84365 12.1317C2.84365 19.0531 2.85381 20.2871 2.91982 20.5918C3.11279 21.5211 3.77802 22.3793 4.62099 22.7957C5.40302 23.1766 4.8292 23.1563 13.8429 23.1563C23.0241 23.1563 22.2624 23.1918 22.7296 22.7297C23.1511 22.3031 23.1561 22.2727 23.1561 19.9316C23.1561 17.7074 23.1409 17.6008 22.821 17.225C22.7194 17.1031 22.5214 16.9457 22.3741 16.8695L22.1151 16.7324L20.1397 16.707L18.1593 16.6817L19.6065 15.8488C20.3987 15.3918 21.1706 14.9399 21.3179 14.8434C21.8054 14.5336 22.0694 13.9293 21.9425 13.391C21.9018 13.2133 21.5768 12.5938 20.9319 11.4766C20.4089 10.5727 19.9112 9.73985 19.83 9.62814C19.5964 9.31837 19.2155 9.14064 18.7839 9.14064C18.5858 9.14064 18.3573 9.1711 18.2659 9.21173C18.1745 9.24728 17.428 9.66876 16.6054 10.141C15.7827 10.6184 15.0565 11.0297 14.9956 11.0652C14.9144 11.1059 15.0311 10.8672 15.4222 10.1969C16.9913 7.47501 16.9811 7.50548 16.8644 6.99259C16.7933 6.66759 16.5749 6.30196 16.3718 6.15978C16.1534 6.00743 13.1218 4.27071 12.878 4.15899C12.6343 4.04728 12.1722 4.03204 11.8726 4.12345C11.4511 4.2504 11.2632 4.49923 10.2577 6.23595L9.31826 7.86095L9.29287 5.87032L9.26748 3.88478L9.13037 3.62579C8.95263 3.29064 8.63271 3.01642 8.30771 2.91993C7.92685 2.80314 4.08779 2.81837 3.75771 2.93009ZM8.17568 3.73243C8.47021 3.88478 8.48037 3.95079 8.48037 5.73829V7.36329H6.06826H3.65615V5.72306C3.66123 3.95587 3.66123 3.93556 3.94052 3.75274C4.07763 3.66134 4.19443 3.65626 6.0581 3.65626C7.71865 3.65626 8.0538 3.66642 8.17568 3.73243ZM13.4112 5.36251C13.9241 5.65704 14.6757 6.09376 15.0819 6.32735C15.9604 6.83009 16.0722 6.93165 16.0722 7.22618C16.0671 7.40899 15.9503 7.64767 15.2901 8.78517C14.8636 9.52657 14.4929 10.1512 14.4726 10.1766C14.4472 10.202 13.5026 9.68907 12.3651 9.03399C10.8315 8.15548 10.3085 7.83048 10.3237 7.77462C10.3339 7.72892 10.6894 7.09923 11.1058 6.37306C11.8979 5.00196 12.0401 4.82423 12.3397 4.82423C12.421 4.82423 12.8577 5.04259 13.4112 5.36251ZM8.48037 8.74962V9.32853L7.73896 10.6031L6.99755 11.8828H5.32685H3.65615V10.0293V8.17579H6.06826H8.48037V8.74962ZM11.9081 9.72462C12.9999 10.3594 13.919 10.9027 13.9495 10.9383C14.0003 10.984 13.9495 11.1059 13.7311 11.4867L13.4519 11.9742L12.1823 12.6902L10.9179 13.4063L9.48076 12.5836C8.69365 12.1317 8.03857 11.7559 8.02841 11.7508C7.99794 11.7254 9.86162 8.53126 9.89716 8.55157C9.9124 8.56173 10.8214 9.08985 11.9081 9.72462ZM19.0886 10.0445C19.1597 10.0953 19.6472 10.8875 20.1804 11.8117C21.0183 13.259 21.1503 13.5129 21.1503 13.6957C21.1503 13.8633 21.1198 13.9445 21.0183 14.0461C20.9421 14.1223 20.2768 14.5285 19.5456 14.9551C18.5503 15.5289 18.1897 15.7168 18.1491 15.6711C18.0729 15.5899 15.7929 11.6391 15.7929 11.5832C15.7929 11.5375 18.4284 10.0039 18.6061 9.94298C18.7483 9.89728 18.9413 9.9379 19.0886 10.0445ZM16.1737 13.8988C16.7831 14.9551 17.3265 15.8895 17.3772 15.9758L17.4737 16.1383L16.9811 16.4227L16.4886 16.707L14.9956 16.6969L13.4976 16.6817L12.6901 15.2852C12.2483 14.5184 11.8827 13.8633 11.8827 13.8379C11.8827 13.7973 14.9499 11.9895 15.0362 11.9844C15.0515 11.9844 15.5644 12.8477 16.1737 13.8988ZM8.97802 13.2539C9.57216 13.5992 10.0444 13.8938 10.019 13.9141C9.93271 13.9953 5.12373 16.7477 5.13896 16.7121C5.14912 16.6867 5.70263 15.7168 6.37295 14.559L7.59169 12.4465L7.74404 12.5379C7.82529 12.5887 8.38388 12.9137 8.97802 13.2539ZM6.4999 12.7156C6.4999 12.741 3.71201 17.5856 3.67646 17.616C3.6663 17.6262 3.65615 16.5242 3.65615 15.1684V12.6953H5.07802C5.86005 12.6953 6.4999 12.7055 6.4999 12.7156ZM12.1468 15.9453L12.5733 16.6817L11.1616 16.6969C10.3847 16.702 9.10498 16.702 8.31787 16.6969L6.89091 16.6817L9.01865 15.4527L11.1464 14.2238L11.4308 14.7164C11.5882 14.9856 11.9081 15.5391 12.1468 15.9453ZM8.78505 19.9316V22.3438H7.3124C6.41865 22.3438 5.73818 22.3234 5.57568 22.2879C4.48896 22.0543 3.65615 21.0387 3.65615 19.9316C3.65615 18.8602 4.45849 17.8547 5.51474 17.6008C5.73818 17.5449 6.20029 17.5246 7.30224 17.5246L8.78505 17.5195V19.9316ZM13.3046 19.9316V22.3438H11.4511H9.59755V19.9316V17.5195H11.4511H13.3046V19.9316ZM17.8241 19.9316V22.3438H15.9706H14.1171V19.9316V17.5195H15.9706H17.8241V19.9316ZM22.1507 17.7125L22.3183 17.875L22.3335 19.8707C22.3487 21.6277 22.3386 21.8816 22.2675 22.0188C22.0999 22.3387 22.0694 22.3438 20.2667 22.3438H18.6366V19.9316V17.5145L20.3124 17.5297L21.9882 17.5449L22.1507 17.7125Z" fill="black"/>
<path d="M5.63663 18.3777C5.21514 18.5098 4.74288 18.9109 4.59053 19.2766C4.23506 20.1297 4.59561 21.0691 5.42335 21.4449C5.79405 21.6125 6.38819 21.5973 6.76397 21.4145C7.31749 21.1402 7.62217 20.673 7.65772 20.0281C7.67803 19.6574 7.6628 19.5813 7.54092 19.307C7.27686 18.7129 6.68272 18.327 6.05303 18.3371C5.89561 18.3371 5.70772 18.3574 5.63663 18.3777ZM6.39835 19.2055C6.83506 19.4289 6.98233 19.8961 6.74366 20.3176C6.54053 20.6781 5.99717 20.8305 5.65186 20.6172C4.96631 20.2008 5.26085 19.1344 6.06827 19.0988C6.1292 19.0938 6.27647 19.1445 6.39835 19.2055Z" fill="black"/>
</svg>
