<svg width="19" height="21" viewBox="0 0 19 21" fill="none" xmlns="http://www.w3.org/2000/svg">
<path d="M17.3045 6.13179L11.1971 0.77761C10.6372 0.276847 9.91239 0 9.16124 0C8.4101 0 7.6853 0.276847 7.12543 0.77761L1.018 6.13179C0.694683 6.42095 0.436676 6.77567 0.261161 7.17234C0.085645 7.569 -0.00335151 7.99851 9.64914e-05 8.43226V17.3287C9.64914e-05 18.1386 0.321826 18.9154 0.894509 19.4881C1.46719 20.0607 2.24392 20.3825 3.05381 20.3825H15.2687C16.0786 20.3825 16.8553 20.0607 17.428 19.4881C18.0007 18.9154 18.3224 18.1386 18.3224 17.3287V8.42208C18.3244 7.99004 18.2347 7.5625 18.0592 7.16769C17.8838 6.77289 17.6265 6.41981 17.3045 6.13179ZM11.1971 18.3467H7.12543V13.2571C7.12543 12.9872 7.23268 12.7283 7.42357 12.5374C7.61446 12.3465 7.87337 12.2392 8.14334 12.2392H10.1791C10.4491 12.2392 10.708 12.3465 10.8989 12.5374C11.0898 12.7283 11.1971 12.9872 11.1971 13.2571V18.3467ZM16.2866 17.3287C16.2866 17.5987 16.1793 17.8576 15.9884 18.0485C15.7975 18.2394 15.5386 18.3467 15.2687 18.3467H13.2329V13.2571C13.2329 12.4472 12.9111 11.6705 12.3385 11.0978C11.7658 10.5251 10.989 10.2034 10.1791 10.2034H8.14334C7.33344 10.2034 6.55672 10.5251 5.98403 11.0978C5.41135 11.6705 5.08962 12.4472 5.08962 13.2571V18.3467H3.05381C2.78385 18.3467 2.52494 18.2394 2.33404 18.0485C2.14315 17.8576 2.03591 17.5987 2.03591 17.3287V8.42208C2.03609 8.27755 2.06705 8.13472 2.12672 8.00309C2.18639 7.87145 2.27342 7.75404 2.38199 7.65865L8.48942 2.31465C8.67518 2.15146 8.91399 2.06146 9.16124 2.06146C9.4085 2.06146 9.6473 2.15146 9.83306 2.31465L15.9405 7.65865C16.0491 7.75404 16.1361 7.87145 16.1958 8.00309C16.2554 8.13472 16.2864 8.27755 16.2866 8.42208V17.3287Z" fill="black"/>
</svg>
