<svg width="33" height="33" viewBox="0 0 33 33" fill="none" xmlns="http://www.w3.org/2000/svg">
<circle cx="16.5" cy="16.5" r="16.5" fill="#EC7600"/>
<path fill-rule="evenodd" clip-rule="evenodd" d="M10.335 6H23.6659L23.8389 6.00353L24.0071 6.01785L24.1747 6.03923L24.3389 6.06839L24.5 6.10649L24.6589 6.15171L24.8136 6.20465L24.9647 6.26539L25.1124 6.33265L25.2559 6.40697L25.3959 6.48908L25.5312 6.57659L25.6612 6.67003L25.7871 6.77119L25.9088 6.87768L26.0236 6.98889L26.1347 7.10617L26.2388 7.22757L26.3388 7.35544L26.4312 7.48817L26.5171 7.62509L26.597 7.76667L26.6711 7.91185L26.7388 8.06123L26.7971 8.21413L26.85 8.37064L26.8946 8.53133L26.9323 8.69436L26.9612 8.86039L26.9824 9.02821L26.9959 9.20016L27 9.37398V22.862L26.9959 23.0352L26.9824 23.2059L26.9612 23.3754L26.9323 23.541L26.8947 23.7042L26.85 23.8647L26.7971 24.0203L26.7388 24.1733L26.6711 24.3238L26.597 24.4679L26.5171 24.6095L26.4312 24.7461L26.3388 24.8788L26.2388 25.0053L26.1347 25.128L26.0235 25.2455L25.9088 25.3568L25.7871 25.463L25.6612 25.5629L25.5312 25.6566L25.3959 25.7438L25.2559 25.8247L25.1124 25.8993L24.9647 25.9676L24.8136 26.027L24.6589 26.0801L24.5 26.1256L24.3389 26.1636L24.1747 26.1927L24.0071 26.2141L23.8389 26.2281L23.6659 26.2318H10.335L10.1624 26.2281L9.99371 26.2141L9.82616 26.1927L9.6624 26.1635L9.4999 26.1256L9.3424 26.0801L9.18743 26.027L9.03619 25.9676L8.88741 25.8993L8.7437 25.8247L8.60498 25.7438L8.46872 25.6566L8.33872 25.5629L8.21246 25.463L8.09125 25.3568L7.97617 25.2456L7.86496 25.128L7.7612 25.0053L7.66244 24.8788L7.56873 24.7461L7.48243 24.6096L7.40244 24.4679L7.32872 24.3238L7.26119 24.1733L7.20245 24.0203L7.14998 23.8647L7.10496 23.7042L7.06746 23.5411L7.03876 23.3754L7.01745 23.2059L7.00373 23.0352L7 22.862V9.37385L7.00373 9.2001L7.01745 9.02814L7.03876 8.86032L7.0674 8.6943L7.10496 8.53127L7.14998 8.37057L7.20245 8.21407L7.26126 8.06116L7.32872 7.91179L7.40244 7.76661L7.48243 7.62502L7.56873 7.4881L7.66244 7.35544L7.7612 7.22751L7.86496 7.1061L7.97617 6.98889L8.09118 6.87761L8.21239 6.77105L8.33872 6.67003L8.46872 6.57659L8.60498 6.48908L8.74363 6.40697L8.88735 6.33258L9.03612 6.26532L9.1873 6.20472L9.34233 6.15171L9.4999 6.10642L9.6624 6.06846L9.82609 6.03923L9.99365 6.01785L10.1623 6.00353L10.335 6Z" fill="#1A5493"/>
<path fill-rule="evenodd" clip-rule="evenodd" d="M8.66602 22.8594H10.221V16.1145H8.66602V22.8594ZM17.1887 17.657H17.0999L17.0122 17.66L16.9257 17.6636L16.8422 17.6689L16.7598 17.6737L16.6787 17.6814L16.5987 17.6903L16.5199 17.6993L16.4434 17.7106L16.3687 17.7219L16.2946 17.7344L16.2222 17.7481L16.1523 17.7624L16.0834 17.7772L16.0157 17.7939L15.9498 17.8105L15.8857 17.8279L15.8234 17.8457L15.7634 17.8647L15.7046 17.8837L15.6469 17.9028L15.5923 17.923L15.5387 17.9433L15.487 17.9647L15.437 17.9849L15.3887 18.0063L15.3422 18.0278L15.297 18.0492L15.2546 18.0706L15.2134 18.092L15.1746 18.114L15.1369 18.1355L15.4299 19.1292L15.4634 19.109L15.4987 19.0887L15.5346 19.0685L15.5722 19.0494L15.611 19.0305L15.651 19.0114L15.6923 18.9924L15.7346 18.975L15.7787 18.9573L15.8233 18.9394L15.8686 18.9215L15.9146 18.9055L15.9611 18.89L16.0087 18.874L16.0569 18.8584L16.1058 18.8448L16.1557 18.8305L16.2057 18.818L16.257 18.8055L16.3069 18.7942L16.3587 18.7829L16.4111 18.7728L16.4622 18.7639L16.5145 18.7549L16.5658 18.7472L16.6187 18.7412L16.6711 18.7347L16.7222 18.7311L16.7745 18.727L16.8258 18.7234L16.8787 18.7222H16.9298L17.0122 18.7234L17.0921 18.727L17.1669 18.7335L17.2369 18.7412L17.3046 18.7526L17.3686 18.765L17.4287 18.7799L17.4846 18.7966L17.5387 18.8156L17.5886 18.8359L17.6346 18.8572L17.6769 18.8799L17.7169 18.9043L17.7546 18.9293L17.7899 18.9561L17.821 18.9822L17.8498 19.0102L17.8769 19.0394L17.901 19.0674L17.9222 19.0965L17.941 19.1268L17.9587 19.156L17.9733 19.1846L17.9869 19.2137L17.9987 19.2428L18.0069 19.2708L18.0146 19.2988L18.021 19.3249L18.0257 19.3518L18.0287 19.3768L18.031 19.4011V19.4779L17.8445 19.4797L17.6622 19.4844L17.4845 19.4934L17.3122 19.5059L17.1446 19.5225L16.9822 19.544L16.8234 19.5678L16.6711 19.5969L16.5234 19.6284L16.3822 19.6653L16.2446 19.7058L16.1134 19.7498L15.9887 19.798L15.8687 19.8498L15.7534 19.9057L15.6446 19.9653L15.5422 20.0283L15.4457 20.0949L15.3546 20.1658L15.2711 20.242L15.1922 20.3203L15.1211 20.4025L15.0558 20.4897L14.9957 20.5796L14.9446 20.6731L14.8987 20.7718L14.8599 20.8729L14.8287 20.9791L14.8034 21.0878L14.7846 21.2004L14.7746 21.318L14.7711 21.4381L14.7723 21.5102L14.7769 21.5822L14.7858 21.6543L14.7987 21.7252L14.8146 21.7959L14.8334 21.8667L14.8558 21.9363L14.8822 22.0046L14.911 22.0717L14.9446 22.1374L14.981 22.2019L15.0199 22.2651L15.0622 22.3271L15.1087 22.3865L15.1586 22.4447L15.2111 22.5003L15.267 22.5533L15.3257 22.604L15.3887 22.652L15.4534 22.6975L15.5222 22.7406L15.5946 22.781L15.6698 22.8176L15.7487 22.8506L15.8299 22.8809L15.9134 22.9074L16.0022 22.9302L16.0922 22.9491L16.1858 22.9643L16.2822 22.9758L16.3822 22.982L16.4846 22.9846L16.5469 22.9833L16.6086 22.9808L16.6687 22.9782L16.7287 22.9732L16.7869 22.9669L16.8457 22.9593L16.9034 22.9505L16.961 22.9403L17.017 22.9277L17.0722 22.915L17.1269 22.9011L17.181 22.8859L17.2334 22.8695L17.2857 22.8518L17.3369 22.8316L17.3869 22.8113L17.4357 22.7898L17.4845 22.7671L17.5322 22.7443L17.5787 22.719L17.6233 22.6925L17.6669 22.6659L17.711 22.6369L17.7522 22.6078L17.7934 22.5774L17.8334 22.5458L17.8722 22.5129L17.9087 22.4788L17.9446 22.4447L17.9799 22.4092L18.0134 22.3726L18.0457 22.3346H18.0634L18.2333 22.8594H19.4987V19.87L19.4969 19.7564L19.491 19.6451L19.4822 19.5351L19.4698 19.4261L19.4533 19.319L19.4321 19.2137L19.4086 19.1114L19.3798 19.0114L19.3457 18.9132L19.3098 18.8179L19.2668 18.7258L19.221 18.6359L19.1698 18.549L19.1145 18.4651L19.0533 18.3842L18.9887 18.3074L18.9186 18.2336L18.8422 18.1646L18.761 18.0986L18.6745 18.0366L18.5833 17.9784L18.4857 17.9254L18.3834 17.876L18.2746 17.832L18.161 17.7915L18.0398 17.757L17.9133 17.7267L17.781 17.7017L17.6422 17.6826L17.4969 17.669L17.3457 17.66L17.1887 17.657ZM18.0758 20.9943V21.0246L18.0746 21.0563L18.0722 21.0878L18.0698 21.1207L18.0657 21.1524L18.0622 21.1853L18.0569 21.2168L18.0499 21.2485L18.0469 21.2598L18.0422 21.2763L18.0387 21.2915L18.0345 21.3016L18.0299 21.3142L18.0246 21.3268L18.011 21.3585L17.9957 21.3888L17.9798 21.4191L17.9622 21.4495L17.9434 21.4786L17.9234 21.5089L17.9022 21.538L17.8798 21.5659L17.8557 21.5936L17.8322 21.6215L17.8057 21.648L17.7787 21.6745L17.751 21.6998L17.7222 21.7238L17.691 21.7479L17.6599 21.7706L17.6269 21.7922L17.5945 21.8137L17.5598 21.8326L17.5246 21.8516L17.4887 21.8693L17.451 21.8845L17.4134 21.8996L17.3734 21.9136L17.3334 21.9249L17.2934 21.9363L17.251 21.9452L17.2087 21.9527L17.1657 21.9591L17.121 21.9628L17.0758 21.9666H16.991L16.9522 21.9642L16.9145 21.9616L16.8769 21.9565L16.841 21.9502L16.8057 21.9439L16.7711 21.9351L16.7369 21.9249L16.7057 21.9148L16.6734 21.9022L16.6434 21.8883L16.6146 21.8731L16.5857 21.8579L16.5598 21.8402L16.5334 21.8213L16.5099 21.8023L16.4857 21.7808L16.4645 21.7581L16.4434 21.7352L16.4246 21.7099L16.4069 21.6834L16.3899 21.6569L16.3746 21.6278L16.361 21.5987L16.3499 21.5683L16.3387 21.5355L16.3299 21.5026L16.3222 21.4685L16.3158 21.4318L16.3122 21.3952L16.3098 21.3572L16.3087 21.318L16.3098 21.2737L16.3134 21.232L16.3199 21.1903L16.3269 21.1498L16.3369 21.1119L16.3499 21.0739L16.3645 21.0386L16.381 21.0032L16.3999 20.969L16.4198 20.9374L16.4422 20.9057L16.4669 20.8754L16.4934 20.8463L16.5222 20.8197L16.5522 20.7932L16.5845 20.7679L16.6187 20.7426L16.6533 20.7199L16.691 20.6984L16.7299 20.6769L16.7698 20.6567L16.8122 20.6377L16.8546 20.62L16.8999 20.6036L16.9469 20.5871L16.9946 20.5732L17.0434 20.5592L17.0945 20.5454L17.1458 20.534L17.1998 20.5227L17.2534 20.5125L17.3098 20.5036L17.3622 20.496L17.4169 20.4885L17.4722 20.4822L17.5298 20.4758L17.5869 20.4721L17.6469 20.467L17.7069 20.4644L17.7687 20.4619L17.8057 20.4606L17.8433 20.4594L17.8822 20.4581H18.0757L18.0758 20.9943ZM23.7933 17.8052V20.8122L23.791 20.8551L23.7868 20.897L23.781 20.9374L23.7744 20.9779L23.7656 21.0158L23.7545 21.0537L23.7409 21.0892L23.7297 21.1182L23.7156 21.1473L23.701 21.1764L23.6857 21.2054L23.6697 21.2333L23.6521 21.2624L23.6333 21.2915L23.6133 21.3192L23.5921 21.3471L23.5709 21.3749L23.5468 21.4027L23.5233 21.4293L23.4986 21.4546L23.4721 21.4799L23.4444 21.5039L23.4156 21.5278L23.3856 21.5507L23.3557 21.5734L23.3233 21.5936L23.2909 21.6139L23.2556 21.6316L23.221 21.6492L23.1845 21.6657L23.1468 21.6796L23.1086 21.6936L23.0686 21.7049L23.0268 21.715L22.9845 21.7226L22.9421 21.7302L22.8968 21.734L22.8521 21.7378H22.8045L22.7469 21.7365L22.6909 21.7327L22.6356 21.7264L22.5833 21.7163L22.5333 21.7049L22.4845 21.6897L22.4386 21.6721L22.3945 21.6518L22.3521 21.6303L22.3122 21.605L22.2733 21.5772L22.2369 21.5469L22.2033 21.5152L22.1698 21.4798L22.1398 21.4432L22.111 21.404L22.0833 21.3623L22.0586 21.318L22.0357 21.2712L22.0133 21.2231L21.9945 21.1725L21.9757 21.1195L21.9598 21.0638L21.9457 21.0069L21.9333 20.9475L21.9221 20.8868L21.9133 20.8236L21.9057 20.7578L21.8998 20.6908L21.8957 20.6212L21.8933 20.5505L21.8921 20.4771V17.8028H20.3745V20.8324L20.3769 20.9045L20.3798 20.9741L20.3833 21.0436L20.3887 21.1119L20.3945 21.1789L20.4022 21.2434L20.4098 21.3079L20.4198 21.3698L20.4298 21.4305L20.441 21.4899L20.4545 21.5481L20.4686 21.605L20.4833 21.6607L20.4986 21.715L20.5157 21.7669L20.5333 21.8187L20.5533 21.8693L20.5721 21.9186L20.5933 21.9666L20.6145 22.0134L20.6357 22.0589L20.6598 22.1032L20.6834 22.1475L20.7069 22.1892L20.7322 22.231L20.7586 22.2714L20.7856 22.3093L20.8134 22.3473L20.8421 22.3839L20.871 22.4194L20.9009 22.4535L20.9322 22.4876L20.9645 22.5192L20.9968 22.5509L21.0298 22.5799L21.0645 22.609L21.0986 22.6369L21.1345 22.6634L21.171 22.6887L21.2086 22.7127L21.2457 22.7355L21.2845 22.7569L21.3233 22.7785L21.3633 22.7974L21.4045 22.8164L21.4457 22.8328L21.4886 22.8493L21.5321 22.8645L21.5745 22.8783L21.6198 22.8923L21.6633 22.9036L21.7098 22.915L21.7544 22.9252L21.801 22.9353L21.8486 22.9429L21.8957 22.9505L21.9433 22.9568L21.9921 22.9619L22.0409 22.9669L22.0909 22.9707L22.141 22.972L22.1921 22.9744H22.2886L22.3322 22.9732L22.3745 22.972L22.4169 22.9694L22.4598 22.9656L22.501 22.9619L22.5421 22.958L22.5821 22.9517L22.6209 22.9467L22.6597 22.939L22.6986 22.9327L22.7357 22.9239L22.7721 22.9163L22.8086 22.9062L22.8445 22.8961L22.8798 22.8859L22.9468 22.8632L23.0133 22.8392L23.0756 22.8139L23.1368 22.7886L23.1956 22.7607L23.2521 22.733L23.3057 22.7026L23.3568 22.6723L23.4056 22.6406L23.4533 22.609L23.4986 22.5762L23.5421 22.5433L23.5833 22.5091L23.6221 22.4737L23.6586 22.4383L23.6933 22.4016L23.7268 22.3662L23.7586 22.3308L23.7868 22.2967L23.8145 22.2639L23.841 22.2322L23.8645 22.2006L23.8857 22.1715L23.9056 22.1412L24.101 22.8594H25.3333V17.8052H23.7933ZM11.6798 16.1147V17.8029H10.971V18.9549H11.6798V21.0107L11.681 21.074L11.6822 21.1359L11.6836 21.1978L11.686 21.2573L11.6898 21.3167L11.6948 21.3749L11.6998 21.4318L11.706 21.4887L11.7122 21.543L11.7197 21.5974L11.7285 21.6506L11.7385 21.7024L11.7485 21.753L11.7598 21.8036L11.771 21.8516L11.7835 21.8996L11.7973 21.9465L11.8122 21.9919L11.8272 22.0362L11.8435 22.0792L11.861 22.1222L11.8785 22.1627L11.8972 22.2031L11.9172 22.2411L11.9372 22.279L11.9585 22.3157L11.981 22.3511L12.0048 22.3865L12.0285 22.4194L12.0535 22.451L12.0798 22.4826L12.106 22.5117L12.131 22.537L12.156 22.5623L12.1822 22.5862L12.2085 22.6102L12.2372 22.6331L12.266 22.6558L12.2973 22.6785L12.3286 22.7001L12.3597 22.7216L12.3935 22.7417L12.4272 22.7607L12.4622 22.781L12.4985 22.7987L12.5347 22.8164L12.5735 22.8341L12.611 22.8493L12.651 22.8658L12.6909 22.8797L12.7322 22.8935L12.7735 22.9062L12.816 22.9188L12.8597 22.9289L12.9034 22.939L12.9487 22.9479L12.9935 22.9568L13.0399 22.9643L13.0858 22.9694L13.1334 22.9744L13.1811 22.9795L13.2299 22.982L13.2788 22.9834L13.3287 22.9846L13.4111 22.9833L13.487 22.9808L13.5587 22.977L13.6235 22.972L13.6846 22.9656L13.7411 22.958L13.7946 22.9491L13.8434 22.939L13.891 22.9289L13.9346 22.9176L13.9758 22.9049L14.017 22.8923L14.0946 22.8645L14.1711 22.8354V21.6606L14.1511 21.6682L14.1246 21.6759L14.0934 21.6834L14.0546 21.6897L14.0111 21.6961L13.9622 21.6998L13.9099 21.7036L13.8534 21.7049L13.8035 21.7036L13.757 21.7011L13.7122 21.6961L13.6699 21.6885L13.6299 21.6796L13.5922 21.6695L13.5558 21.6568L13.5222 21.6417L13.4911 21.6253L13.4611 21.6075L13.4323 21.586L13.407 21.5646L13.3823 21.5405L13.3599 21.5152L13.3387 21.4874L13.3199 21.457L13.3023 21.4267L13.2858 21.3926L13.2711 21.3585L13.257 21.3218L13.2458 21.2826L13.2346 21.2434L13.2258 21.2004L13.217 21.1574L13.2111 21.1119L13.2046 21.0638L13.1999 21.0158L13.1958 20.9652L13.1934 20.9121L13.191 20.859L13.1899 20.8033V18.9549H14.1546V17.8028H13.1899V16.1147L11.6798 16.1147ZM23.2198 16.1135L22.2821 17.4767H23.3668L24.6885 16.1135H23.2198Z" fill="#FFF212"/>
</svg>
