<svg width="22" height="22" viewBox="0 0 22 22" fill="none" xmlns="http://www.w3.org/2000/svg">
<g clip-path="url(#clip0_51_653)">
<path d="M9.94722 0.0472622C7.86323 0.262106 5.89526 1.05703 4.21519 2.35468C3.73823 2.71992 2.71987 3.73828 2.35464 4.21523C1.67573 5.0875 1.0269 6.25195 0.66167 7.24023C0.459717 7.79023 0.201904 8.81719 0.103076 9.47461C-0.00864258 10.1965 -0.00864258 11.7992 0.103076 12.5254C0.201904 13.1742 0.459717 14.2055 0.665967 14.7641C1.0312 15.7566 1.67573 16.9125 2.35464 17.7848C2.70269 18.2359 3.68667 19.2285 4.12495 19.5766C5.0144 20.277 6.22183 20.9602 7.23589 21.334C7.79448 21.5402 8.82573 21.798 9.47456 21.8969C10.1105 21.9914 11.7605 22.0086 12.3535 21.9227C14.4246 21.6262 16.1691 20.8914 17.789 19.6453C18.2316 19.3016 19.2242 18.3176 19.5765 17.875C20.2683 16.9984 20.9644 15.7652 21.3339 14.7641C21.5402 14.2055 21.798 13.1742 21.8968 12.5254C21.957 12.1387 21.9742 11.7562 21.9742 11C21.9742 9.83555 21.9183 9.3414 21.6562 8.31015C21.45 7.49375 21.2566 6.97812 20.8613 6.16601C20.0191 4.43437 18.7128 2.94765 17.08 1.85195C15.7093 0.932419 14.2398 0.369528 12.5468 0.107418C12.0054 0.0257778 10.4972 -0.0128937 9.94722 0.0472622ZM11.8808 1.33203C15.2539 1.6414 18.2402 3.7082 19.7226 6.76328C20.1781 7.6957 20.4359 8.5207 20.6078 9.60351C20.7152 10.2652 20.7152 11.7348 20.6078 12.3965C20.4359 13.4793 20.1781 14.3043 19.7226 15.2367C18.7644 17.2047 17.2089 18.7602 15.2324 19.727C14.3042 20.1781 13.4792 20.4359 12.3964 20.6078C11.7347 20.7152 10.2652 20.7152 9.60347 20.6078C7.74292 20.307 6.13159 19.5766 4.72651 18.3992C2.58667 16.6074 1.28901 13.8145 1.28901 11C1.28901 8.18554 2.58237 5.40547 4.72651 3.59648C6.72026 1.9207 9.31987 1.0957 11.8808 1.33203Z" fill="black"/>
<path d="M10.3339 5.27227C9.08783 5.53867 8.10384 6.53555 7.84603 7.78594C7.70853 8.45195 7.79017 8.81289 8.12103 8.98047C8.33588 9.08789 8.50775 9.08789 8.72259 8.98047C8.92025 8.88164 9.06634 8.63242 9.06634 8.40469C9.06634 7.92773 9.28119 7.425 9.64213 7.06836C10.4113 6.30352 11.5972 6.30352 12.3535 7.06406C12.8046 7.51953 13.0023 8.12109 12.8992 8.72695C12.796 9.32422 12.5081 9.73672 11.9195 10.1277C11.4769 10.4156 11.1331 10.7508 10.8925 11.1246C10.4972 11.7391 10.3984 12.0914 10.3683 12.998C10.3468 13.6469 10.3511 13.7027 10.437 13.8703C10.5402 14.0723 10.7808 14.2227 10.9999 14.2227C11.2148 14.2227 11.4597 14.0723 11.5585 13.8789C11.6316 13.7371 11.6445 13.6254 11.6445 13.1828C11.6488 12.5941 11.6831 12.3836 11.8378 12.0527C11.9925 11.7305 12.2503 11.4598 12.6714 11.1762C13.3761 10.6992 13.8058 10.1535 14.0507 9.41875C14.5105 8.03945 13.982 6.53125 12.7488 5.72773C12.0312 5.25937 11.1589 5.09609 10.3339 5.27227Z" fill="black"/>
<path d="M10.6906 15.602C10.5059 15.6965 10.3555 15.95 10.3555 16.1563C10.3555 16.3711 10.5059 16.616 10.6992 16.7148C10.7895 16.7621 10.927 16.8008 11 16.8008C11.3266 16.8008 11.6445 16.4828 11.6445 16.1563C11.6445 15.9414 11.4941 15.6965 11.3008 15.5977C11.0902 15.4902 10.8969 15.4902 10.6906 15.602Z" fill="black"/>
</g>
<defs>
<clipPath id="clip0_51_653">
<rect width="22" height="22" fill="white"/>
</clipPath>
</defs>
</svg>
