<svg width="18" height="20" viewBox="0 0 18 20" fill="none" xmlns="http://www.w3.org/2000/svg">
<path d="M17.0399 2.10996C16.7907 1.93036 16.5026 1.81205 16.1991 1.76462C15.8955 1.7172 15.5851 1.74199 15.293 1.837C14.5223 2.05372 13.7241 2.15671 12.9236 2.14272C11.7407 2.07851 10.5808 1.78947 9.50609 1.29107C8.1784 0.677038 6.7423 0.331927 5.28058 0.275635C2.1251 0.275635 0.913137 1.3675 0.694765 1.52036C0.590283 1.62277 0.507447 1.74513 0.451177 1.88017C0.394907 2.01522 0.366352 2.1602 0.367206 2.3065V18.8373C0.367206 19.1269 0.482241 19.4046 0.687005 19.6093C0.891769 19.8141 1.16949 19.9291 1.45907 19.9291C1.74865 19.9291 2.02637 19.8141 2.23113 19.6093C2.43589 19.4046 2.55093 19.1269 2.55093 18.8373V14.1423C3.42096 13.8092 4.34974 13.6569 5.28058 13.6946C6.46352 13.7588 7.62338 14.0479 8.69811 14.5463C10.0258 15.1603 11.4619 15.5054 12.9236 15.5617C14.2399 15.6114 15.5492 15.3495 16.7451 14.7974C17.0674 14.646 17.3407 14.407 17.5338 14.1078C17.7268 13.8086 17.8319 13.4611 17.837 13.105V3.67132C17.8366 3.36667 17.7642 3.06642 17.6257 2.79507C17.4872 2.52372 17.2865 2.28897 17.0399 2.10996ZM15.6533 12.9303C14.7829 13.2622 13.8544 13.4145 12.9236 13.378C11.7392 13.3152 10.5784 13.0222 9.50609 12.5154C8.17587 11.9102 6.74082 11.5691 5.28058 11.5109C4.36069 11.495 3.44277 11.6015 2.55093 11.8275V2.91794C3.41892 2.57655 4.34868 2.42035 5.28058 2.45936C6.46498 2.52212 7.62579 2.8151 8.69811 3.32193C10.0283 3.92709 11.4634 4.26824 12.9236 4.32644C13.8441 4.34003 14.7622 4.22986 15.6533 3.99888V12.9303Z" fill="#231F20"/>
</svg>
