<svg width="683" height="684" viewBox="0 0 683 684" fill="none" xmlns="http://www.w3.org/2000/svg">
<g clip-path="url(#clip0_376_52)">
<path d="M195.333 2.50013C156.133 8.7668 123.867 25.5668 96.2666 54.3668C75.1999 76.3668 61.1999 102.233 53.3333 133.833C49.1999 150.1 48.2666 180.5 51.1999 199.167C62.5333 270.5 115.867 325.567 188.667 341.3C203.333 344.5 236.533 344.5 252.267 341.433C303.867 331.167 348.4 298.367 372.4 252.767C385.6 227.567 390.667 208.367 391.6 179.033C392.4 155.033 390.267 138.5 384 119.033C369.733 75.5668 336.667 37.7001 295.333 17.8335C264.133 2.7668 228 -2.69987 195.333 2.50013ZM234.667 58.6335C235.467 60.5001 236 65.4335 236 69.7001C236 74.3668 236.667 78.1001 237.733 78.9001C238.533 79.5668 243.867 81.0335 249.467 82.2335C254.933 83.3001 262.533 85.7001 266.133 87.4335C274.267 91.3001 274.8 93.9668 269.6 109.833C265.2 123.033 265.333 123.033 249.333 117.167C241.333 114.233 236.933 113.433 227.333 113.433C213.6 113.3 208 115.433 204.667 121.833C199.067 132.767 205.867 140.367 230.8 151.033C262.8 164.767 273.467 174.1 279.2 193.7C286.8 219.7 272.533 246.767 246 256.633C241.6 258.233 237.2 260.233 236.4 260.9C235.2 261.7 234.667 265.833 234.667 273.033C234.667 288.633 233.6 289.833 219.333 289.833C205.067 289.833 204 288.9 204 276.367C204 263.967 202.933 262.367 194.4 261.167C184.267 259.833 167.6 254.367 163.333 250.9C160.267 248.5 159.867 247.3 160.4 243.3C161.467 234.767 166.8 219.033 168.667 218.367C169.733 217.967 175.333 219.433 181.2 221.7C194.933 227.033 202.667 228.633 213.6 228.767C230.133 228.767 240.933 220.767 239.467 209.433C238.267 199.433 232.933 194.9 212.533 186.5C184.8 175.033 172.267 165.967 165.733 152.767C162.4 146.1 162 143.7 162 132.5C162 121.7 162.533 118.767 165.467 112.5C171.6 99.5668 180.533 91.3001 194.8 85.8335C205.2 81.8335 206.667 79.5668 206.667 67.3001C206.667 61.5668 207.067 56.5001 207.6 56.1001C208 55.5668 214 55.1668 220.933 55.1668C233.067 55.1668 233.467 55.3001 234.667 58.6335Z" fill="#21C25E"/>
<path d="M489.466 163.833C465.333 170.1 442.8 183.967 432.133 199.167C428.533 204.367 425.2 211.433 422.533 220.1C408.133 266.633 395.2 289.3 366.666 317.967C336.533 348.233 303.333 366.367 261.333 375.433C249.466 377.967 243.333 378.367 220.666 378.367C198.266 378.367 191.866 377.967 180.533 375.433C153.333 369.567 127.066 358.633 105.733 344.233L94.7998 336.767L90.7998 347.033C80.3998 374.233 76.9331 393.033 76.9331 421.833C76.9331 456.367 83.0664 481.167 100.533 517.167C112.133 540.9 124.933 560.367 140.266 577.967C146.533 585.033 153.466 593.567 155.866 597.033C167.066 613.167 174.933 637.7 176.666 661.033C177.6 672.767 178 674.633 181.333 678.367L185.066 682.5H236.666H288.266L292.133 678.1C295.866 673.967 296 673.433 296 659.833V645.967L300.4 646.9C302.666 647.433 318.933 647.833 336.266 647.833H368V660.767C368 673.3 368.133 673.967 371.866 678.1L375.733 682.5L426.533 682.9L477.333 683.3L482.133 678.767L487.066 674.233L488 652.367C488.8 632.633 489.333 629.567 492.666 621.167C498.8 605.833 505.6 596.767 524.933 577.7C555.333 547.967 575.333 517.967 584.666 488.233L587.066 480.767L600.533 480.233C616.533 479.7 622.533 477.3 628.666 468.633L632.666 462.9L633.066 422.767C633.466 379.7 633.066 375.567 627.2 368.5C621.2 361.433 616.8 359.833 600.8 359.167L586.133 358.5L582 347.833C570.8 319.033 554.666 295.033 529.733 270.367C512.4 253.033 512.133 252.767 510.533 244.633C507.2 227.7 510.533 210.9 521.333 189.7C527.333 177.967 527.6 175.567 524.533 169.033C520.133 159.833 510.533 158.367 489.466 163.833ZM506.533 323.167C511.466 326.633 516 335.167 516 341.167C516 347.167 511.466 355.7 506.533 359.167C503.6 361.3 499.733 362.5 494.8 362.9C486.133 363.433 480.266 360.367 474.933 352.5C472.266 348.5 471.866 346.633 472.266 339.567C472.8 330.633 475.2 326.767 483.333 321.567C488.933 317.967 500.533 318.767 506.533 323.167Z" fill="#21C25E"/>
</g>
<defs>
<clipPath id="clip0_376_52">
<rect width="682.667" height="682.667" fill="white" transform="translate(0 0.5)"/>
</clipPath>
</defs>
</svg>
