<svg width="453" height="453" viewBox="0 0 453 453" fill="none" xmlns="http://www.w3.org/2000/svg">
<path d="M89.2156 0.800581C86.8287 1.41941 77.8998 9.90625 48.8147 39.345C9.20949 79.3922 6.99938 82.1328 3.19798 93.979C0.457443 102.643 0.457443 116.257 3.19798 124.921C6.82257 136.502 9.73992 139.949 47.135 178.052C66.584 197.766 84.0881 215.005 86.033 216.331C88.9504 218.187 90.5417 218.629 95.4039 218.629C100.266 218.629 101.857 218.276 104.863 216.242C111.494 211.822 114.323 204.043 112.201 196.086C111.228 192.55 107.427 188.395 74.6289 155.42C36.5265 117.141 36.1729 116.699 36.1729 109.45C36.1729 102.201 36.5265 101.759 74.6289 63.4794C114.588 23.3437 113.969 24.1394 112.731 14.9453C111.228 4.24836 100.355 -2.38198 89.2156 0.800581Z" fill="#21C25E"/>
<path d="M91.1603 92.7412C89.569 93.1832 86.7401 95.1281 84.7952 97.073C77.0156 104.853 78.2532 117.583 87.3589 124.036L91.1603 126.689L241.183 127.131L391.205 127.573L397.924 130.844C405.969 134.822 410.92 139.949 414.809 148.171L417.638 154.094L418.08 193.522L418.522 232.951L420.909 236.487C424.534 241.968 428.866 244.267 435.761 244.267C442.657 244.267 446.989 241.968 450.613 236.487L453 232.862V192.196C453 148.436 453 148.79 448.138 135.794C442.303 120.147 425.064 102.908 409.417 97.073C395.449 91.8572 408.533 92.2108 244.365 92.034C150.833 91.9456 93.0168 92.2108 91.1603 92.7412Z" fill="#21C25E"/>
<path d="M12.4802 208.551C8.32518 209.789 2.8441 215.624 1.69484 219.955C0.9876 222.431 0.81079 235.868 0.9876 262.655C1.34122 304.293 1.34122 303.675 6.11506 316.493C11.9498 332.141 29.1887 349.38 44.8363 355.214C58.7158 360.43 46.6044 360.077 211.656 360.077H362.827L366.187 357.955C368.043 356.806 370.607 354.242 371.933 352.297C373.966 349.291 374.32 347.7 374.32 342.838C374.32 337.975 373.966 336.384 371.933 333.378C370.607 331.434 368.043 328.87 366.187 327.721L362.827 325.599L212.893 325.157L63.0476 324.715L56.3288 321.444C48.284 317.466 43.3334 312.338 39.4436 304.117L36.6146 298.193L36.1726 258.677L35.7306 219.248L33.0785 215.447C28.6582 209.17 19.9062 206.253 12.4802 208.551Z" fill="#21C25E"/>
<path d="M352.219 234.454C348.683 235.957 343.821 240.819 342.406 244.443C340.815 248.245 340.815 253.726 342.583 257.793C343.467 260.003 355.667 272.821 380.066 297.309C417.727 335.147 418.08 335.589 418.08 342.838C418.08 350.087 417.727 350.529 379.624 388.808C346.826 421.783 343.025 425.938 342.053 429.474C339.931 437.431 342.76 445.21 349.39 449.63C352.396 451.664 353.987 452.017 358.849 452.017C363.712 452.017 365.303 451.575 368.22 449.719C374.409 445.564 442.038 376.078 445.751 369.978C450.967 361.491 453 353.8 453 342.838C453 331.876 450.967 324.184 445.751 315.698C441.066 308.006 371.933 237.725 366.541 235.073C362.209 232.951 356.197 232.686 352.219 234.454Z" fill="#21C25E"/>
</svg>
