<svg width="258" height="400" viewBox="0 0 258 400" fill="none" xmlns="http://www.w3.org/2000/svg">
<path d="M240.711 3.32156C253.245 9.58822 258.978 22.9216 254.978 36.5216C253.511 41.4549 251.111 44.9216 245.911 49.9882C242.045 53.7216 201.511 88.6549 155.778 127.722C110.178 166.788 72.8448 199.055 72.9781 199.588C72.9781 200.122 109.911 231.988 154.978 270.522C258.578 358.922 253.645 354.388 256.178 362.922C263.378 387.055 238.311 408.122 216.445 396.388C208.578 392.122 9.91143 221.722 5.3781 215.322C-3.15524 203.322 -1.42191 189.188 9.77809 178.255C13.2448 174.922 60.7114 134.122 115.111 87.5882C189.245 24.1216 215.245 2.65489 219.245 1.45489C227.245 -0.945112 232.978 -0.411777 240.711 3.32156Z" fill="#F6F6F6"/>
</svg>
