<svg width="33" height="33" viewBox="0 0 33 33" fill="none" xmlns="http://www.w3.org/2000/svg">
<circle cx="16.5" cy="16.5" r="16.5" fill="#CE1C30"/>
<path d="M18.3214 19.9694L16.6726 20.9188V26.9973L18.4437 26.9997C18.618 27 18.7594 26.8586 18.7594 26.6845V20.196C18.7594 19.9473 18.5193 19.8567 18.3214 19.9694ZM15.9295 11.2799C14.7084 11.2799 13.3737 11.3923 12.0546 11.6165C13.3897 9.90211 15.5061 8.79621 17.8665 8.79621C19.6084 8.79621 21.3506 9.4531 22.5228 10.4306C22.7346 10.6067 22.8974 10.6231 23.0602 10.4626C23.223 10.3025 23.2066 10.142 23.0275 9.93383C21.4971 8.15503 19.2505 6.95335 16.5968 7.00139C13.129 7.06575 10.1823 9.26093 9.05899 12.3055C8.03326 12.6261 7.08907 13.0104 6.25876 13.4751C6.03072 13.6035 5.94947 13.7637 6.03072 13.9559C6.11227 14.132 6.27507 14.1961 6.50281 14.132C7.21925 13.9235 7.95171 13.7474 8.71678 13.5872C8.63523 13.9879 8.5866 14.4046 8.5866 14.8372C8.52136 17.6416 10.0192 20.3015 12.331 21.7597C12.5591 21.9041 12.7545 21.9041 12.8847 21.7277C13.0148 21.5515 12.9985 21.3913 12.8031 21.2149C11.3379 19.9008 10.5239 17.9458 10.5239 16.0069C10.5239 15.0294 10.7193 14.084 11.0939 13.2346C11.8589 13.1705 12.6892 13.1225 13.6011 13.1225C19.5272 13.1225 24.5251 15.0775 24.5251 17.6413C24.5251 18.9393 22.8807 20.2371 20.9271 21.1025C20.455 21.3107 20.4061 21.4548 20.4714 21.6633C20.5363 21.8555 20.748 21.9198 20.9924 21.8394C24.4115 20.7181 27 18.8756 27 16.6481C27 13.6196 22.116 11.2799 15.9295 11.2799ZM14.6655 22.3096V26.7966C14.6655 26.9091 14.7564 27 14.8688 27H16.1165V21.2385L14.8709 21.9558C14.7437 22.0283 14.6655 22.1422 14.6655 22.3096Z" fill="white"/>
</svg>
