<svg width="26" height="26" viewBox="0 0 26 26" fill="none" xmlns="http://www.w3.org/2000/svg">
<g clip-path="url(#clip0_51_628)">
<path d="M10.0445 2.15313L6.75899 4.31133L4.66173 4.33164C2.37149 4.35195 2.33087 4.35703 1.70118 4.6668C1.13751 4.95117 0.629694 5.45391 0.355475 6.01758C0.0304754 6.67773 0.0507879 6.12422 0.0507879 15.1836C0.0507879 24.2836 0.0304754 23.6488 0.375788 24.3496C0.710944 25.0199 1.33048 25.5633 2.08204 25.8375L2.4629 25.9746L12.8121 25.9898L23.1613 26L23.2832 25.8781L23.4102 25.7512V23.0648V20.3734L24.0856 20.3531C24.7 20.3328 24.7813 20.3227 25.0504 20.1855C25.4211 20.0027 25.7563 19.6371 25.8934 19.2664C25.9949 18.9973 26 18.8906 26 16.0215C26 13.3707 25.9898 13.0305 25.9137 12.8375C25.7258 12.3551 25.3398 11.9691 24.8727 11.8016C24.7457 11.7559 24.3953 11.7102 24.0348 11.6949L23.4102 11.6645V8.125V4.58555L23.2781 4.46367L23.1461 4.3418L21.7547 4.32656L20.3684 4.31133L20.0586 3.33633C19.8859 2.79805 19.6879 2.17852 19.6168 1.95508C19.4645 1.47266 19.3426 1.32031 19.1191 1.32031C19.0328 1.32031 18.1746 1.61992 17.2199 1.98555C16.2652 2.35117 15.4578 2.64062 15.4223 2.62539C15.3867 2.61523 15.0059 2.05156 14.5793 1.37109C14.1477 0.695704 13.7465 0.111719 13.6906 0.0710945C13.6348 0.0304699 13.5281 0 13.457 0C13.3758 0 12.1672 0.761719 10.0445 2.15313ZM13.9344 1.98555C14.2594 2.48828 14.5336 2.925 14.5387 2.95039C14.5438 2.98594 7.52579 5.69766 4.6211 6.78438C4.58048 6.79961 4.56016 6.79961 4.5754 6.78438C4.63126 6.72852 13.2844 1.06641 13.3148 1.06641C13.3301 1.06641 13.6145 1.47774 13.9344 1.98555ZM18.8856 2.49844C20.0586 6.20547 21.0742 9.45547 21.0742 9.49609C21.0742 9.53164 20.8711 9.54688 20.4547 9.53672L19.8402 9.52148L19.2207 7.67305C18.784 6.36797 18.5707 5.79922 18.4945 5.73828C18.4387 5.69258 18.2508 5.63672 18.0832 5.62148C17.6719 5.57578 17.3773 5.42852 16.9813 5.07305C16.768 4.875 16.6106 4.77344 16.5293 4.77344C16.4074 4.77344 15.2293 5.20508 7.13477 8.20117L3.47852 9.55703L3.03673 9.53164C2.73712 9.51133 2.49844 9.46563 2.29024 9.3793C1.92462 9.23203 1.50313 8.92735 1.59454 8.87656C1.62501 8.86133 4.6211 7.71367 8.25196 6.33242C11.8828 4.94609 15.7219 3.48359 16.7832 3.07734C17.8445 2.67617 18.7383 2.34102 18.7738 2.34102C18.8043 2.33594 18.8551 2.41211 18.8856 2.49844ZM5.33204 5.21523C5.32696 5.24063 4.36212 5.88555 3.18399 6.65742C1.39141 7.82539 1.03087 8.04375 0.995319 7.97774C0.96485 7.93203 0.934382 7.69844 0.924225 7.45977C0.888678 6.76914 1.0918 6.27656 1.59962 5.79414C1.92462 5.48438 2.30548 5.29649 2.72188 5.23555C3.09766 5.17969 5.33204 5.16445 5.33204 5.21523ZM22.5469 7.36328V9.54688H22.293C22.0746 9.54688 22.0289 9.53164 21.9883 9.43008C21.9172 9.2625 20.668 5.29649 20.668 5.23047C20.668 5.2 20.9828 5.17969 21.6074 5.17969H22.5469V7.36328ZM17.0981 6.23086C17.2504 6.30195 17.4941 6.38828 17.6363 6.42383L17.9004 6.47969L18.393 7.92695C18.6621 8.71914 18.8856 9.40977 18.8856 9.45547C18.8906 9.5418 18.5555 9.54688 12.482 9.5418C8.3586 9.5418 6.10391 9.52148 6.16993 9.49102C6.22579 9.46563 8.54649 8.60234 11.3242 7.57149L16.377 5.70274L16.6004 5.90078C16.7223 6.00742 16.9457 6.15469 17.0981 6.23086ZM1.26954 9.80586C1.39649 9.90234 1.64024 10.0445 1.8129 10.1207C2.48829 10.4254 1.92969 10.4102 12.6852 10.4102H22.5469V12.3652V14.3203H19.952C17.0676 14.3203 17.0574 14.3203 16.382 14.6605C15.6863 15.0109 15.0617 15.798 14.8586 16.5852C14.757 16.9813 14.752 17.6617 14.8535 18.0527C14.9602 18.4691 15.2445 19.0227 15.5137 19.3324C15.8133 19.6727 16.3465 20.0281 16.8086 20.2008L17.1895 20.3379L19.8707 20.3531L22.5469 20.3684V22.75V25.1367H12.7207C5.68751 25.1367 2.82344 25.1215 2.63048 25.0809C1.97032 24.9387 1.4168 24.507 1.11212 23.8926L0.93946 23.5371L0.924225 16.5344C0.914069 10.8977 0.924225 9.5418 0.975007 9.58242C1.01055 9.61289 1.14258 9.71445 1.26954 9.80586ZM24.4461 12.5938C25.1723 12.7613 25.3856 13.65 24.8168 14.1223C24.6543 14.2543 24.2531 14.3305 23.8164 14.3102L23.4356 14.2949L23.4203 13.4824C23.4152 13.0406 23.4203 12.6445 23.4305 12.609C23.4609 12.5328 24.1363 12.5176 24.4461 12.5938ZM25.1367 16.9559C25.1367 18.916 25.1367 18.9262 25.0199 19.0988C24.959 19.1953 24.8066 19.3223 24.6797 19.3883L24.4512 19.5051L20.8711 19.4898C17.3469 19.4746 17.2859 19.4746 17.027 19.368C16.4023 19.109 15.925 18.591 15.732 17.9613C15.4223 16.9355 15.8844 15.8742 16.8543 15.3969L17.2352 15.209L20.9422 15.1836C24.243 15.1582 24.6746 15.148 24.8574 15.0719C24.9691 15.0262 25.0758 14.9855 25.1012 14.9855C25.1215 14.9805 25.1367 15.8691 25.1367 16.9559Z" fill="black"/>
<path d="M2.44756 12.0453L2.35107 12.4668L2.45771 12.5023C2.51865 12.5176 2.9249 12.5328 3.3667 12.5379L4.16396 12.543V12.1113V11.6797H3.43271C3.03154 11.6797 2.66592 11.6645 2.62529 11.6492C2.56436 11.6289 2.52881 11.7152 2.44756 12.0453Z" fill="black"/>
<path d="M5.92617 11.7152C5.90586 11.7305 5.89062 11.9285 5.89062 12.1469V12.543H6.75391H7.61719V12.1113V11.6797H6.78945C6.33242 11.6797 5.94141 11.6949 5.92617 11.7152Z" fill="black"/>
<path d="M9.39453 12.1113V12.543H10.2578H11.1262L11.1109 12.1215L11.0957 11.7051L10.2477 11.6898L9.39453 11.6797V12.1113Z" fill="black"/>
<path d="M12.8477 12.1113V12.543H13.7109H14.5742V12.1113V11.6797H13.7109H12.8477V12.1113Z" fill="black"/>
<path d="M16.3363 11.7152C16.316 11.7305 16.3008 11.9285 16.3008 12.1469V12.543H17.1641H18.0273V12.1113V11.6797H17.1996C16.7426 11.6797 16.3516 11.6949 16.3363 11.7152Z" fill="black"/>
<path d="M19.7895 11.7102C19.7691 11.7305 19.7539 11.9285 19.7539 12.1469V12.543H20.5156H21.2824L21.2672 12.1215L21.252 11.7051L20.5359 11.6898C20.1449 11.6848 19.8098 11.6949 19.7895 11.7102Z" fill="black"/>
<path d="M2.44773 23.3137C2.39187 23.5473 2.35632 23.7504 2.36648 23.7656C2.38171 23.7809 2.79304 23.8012 3.28054 23.8063L4.16413 23.8266V23.3898V22.9531H3.46843C3.08249 22.9531 2.72194 22.9379 2.66101 22.9227C2.56452 22.8973 2.54421 22.9328 2.44773 23.3137Z" fill="black"/>
<path d="M5.92617 22.9887C5.90586 23.0039 5.89062 23.202 5.89062 23.4203V23.8164H6.75391H7.61719V23.3848V22.9531H6.78945C6.33242 22.9531 5.94141 22.9684 5.92617 22.9887Z" fill="black"/>
<path d="M9.39453 23.3848V23.8164H10.2578H11.1211V23.3848V22.9531H10.2578H9.39453V23.3848Z" fill="black"/>
<path d="M12.8477 23.3848V23.8164H13.7109H14.5742V23.3848V22.9531H13.7109H12.8477V23.3848Z" fill="black"/>
<path d="M16.3008 23.3848V23.8164H17.1641H18.0273V23.3848V22.9531H17.1641H16.3008V23.3848Z" fill="black"/>
<path d="M19.7895 22.9836C19.7691 23.0039 19.7539 23.202 19.7539 23.4203V23.8164H20.5156H21.2824L21.2672 23.3949L21.252 22.9785L20.5359 22.9633C20.1449 22.9582 19.8098 22.9684 19.7895 22.9836Z" fill="black"/>
<path d="M17.225 16.1789C16.7832 16.3973 16.509 16.8238 16.5039 17.2961C16.5039 17.8141 16.7375 18.2203 17.1742 18.4641C17.5246 18.652 18.0375 18.6723 18.3574 18.4996C19.1141 18.0984 19.3172 17.1691 18.7891 16.5039C18.4336 16.057 17.7531 15.9149 17.225 16.1789ZM18.0324 16.9762C18.1391 17.0574 18.2305 17.2352 18.2305 17.3672C18.2305 17.5195 17.9613 17.7734 17.7988 17.7734C17.6059 17.7734 17.3672 17.5195 17.3672 17.3164C17.3672 17.0066 17.7887 16.7883 18.0324 16.9762Z" fill="black"/>
</g>
<defs>
<clipPath id="clip0_51_628">
<rect width="26" height="26" fill="white"/>
</clipPath>
</defs>
</svg>
