<svg width="23" height="19" viewBox="0 0 23 19" fill="none" xmlns="http://www.w3.org/2000/svg">
<path d="M0.543555 0.201172C0.233594 0.273047 0 0.560547 0 0.870508C0 1.08164 0.161719 1.34219 0.359375 1.45449L0.530078 1.54883H11.5H22.4699L22.6406 1.45449C23.1123 1.18945 23.1078 0.54707 22.6361 0.268555C22.4834 0.178711 22.398 0.178711 11.5898 0.169727C5.59727 0.169727 0.628906 0.183203 0.543555 0.201172Z" fill="black"/>
<path d="M0.426751 5.96913C0.238079 6.04999 0.0538993 6.27909 0.0179618 6.47226C-0.0449288 6.81815 0.215618 7.21796 0.54804 7.27636C0.628899 7.28983 4.16874 7.29433 8.40937 7.28983C16.118 7.27636 16.1225 7.27636 16.2437 7.18202C16.4728 7.01132 16.5537 6.86308 16.5537 6.60253C16.5537 6.34198 16.4728 6.19374 16.2437 6.02304L16.1225 5.9287L8.34198 5.91972C1.94062 5.91073 0.539056 5.91972 0.426751 5.96913Z" fill="black"/>
<path d="M0.426751 11.7641C0.238079 11.8449 0.0538993 12.074 0.0179618 12.2672C-0.0449288 12.6131 0.215618 13.0129 0.54804 13.0713C0.628899 13.0848 5.61074 13.0892 11.6213 13.0848L22.5463 13.0713L22.6676 12.9769C22.8967 12.8062 22.9775 12.658 22.9775 12.3975C22.9775 12.1369 22.8967 11.9887 22.6676 11.818L22.5463 11.7236L11.5539 11.7146C2.48417 11.7057 0.539056 11.7146 0.426751 11.7641Z" fill="black"/>
<path d="M0.354925 17.55C-0.112262 17.8195 -0.10777 18.4529 0.36391 18.7314C0.512152 18.8213 0.61098 18.8213 5.36821 18.8348C8.03657 18.8437 10.3321 18.8348 10.4668 18.8213C10.678 18.7943 10.7409 18.7629 10.9026 18.5967C11.0823 18.417 11.0957 18.39 11.0957 18.1609C11.0957 17.8644 10.97 17.6488 10.7364 17.532C10.5881 17.4557 10.2512 17.4512 5.54789 17.4512H0.516644L0.354925 17.55Z" fill="black"/>
</svg>
