<?xml version="1.0" standalone="no"?>
<!DOCTYPE svg PUBLIC "-//W3C//DTD SVG 20010904//EN"
 "http://www.w3.org/TR/2001/REC-SVG-20010904/DTD/svg10.dtd">
<svg version="1.0" xmlns="http://www.w3.org/2000/svg"
 width="512.000000pt" height="512.000000pt" viewBox="0 0 512.000000 512.000000"
 preserveAspectRatio="xMidYMid meet">

<g transform="translate(0.000000,512.000000) scale(0.100000,-0.100000)"
fill="#000000" stroke="none">
<path d="M2380 4799 c-254 -30 -536 -130 -658 -234 -76 -65 -82 -91 -82 -333
l0 -212 -654 0 c-627 0 -657 -1 -717 -20 -114 -36 -203 -122 -245 -234 -18
-48 -19 -86 -19 -661 l0 -610 23 -56 c12 -32 40 -77 62 -102 l40 -45 2 -843 3
-844 32 -67 c54 -114 150 -191 271 -217 38 -8 483 -11 1563 -11 l1510 0 24 25
c30 30 32 64 4 99 l-20 26 -1512 0 c-1077 0 -1524 3 -1552 11 -85 24 -159 103
-170 183 -3 22 -5 375 -3 783 l3 742 75 -46 c122 -75 340 -176 391 -181 40 -4
49 -1 63 19 21 31 20 72 -1 96 -10 11 -43 30 -73 43 -92 38 -248 118 -339 175
-125 78 -197 139 -223 187 l-23 43 0 596 0 596 30 49 c19 30 49 60 79 79 l49
30 2247 0 2247 0 49 -30 c30 -19 60 -49 79 -79 l30 -49 0 -596 0 -596 -23 -42
c-56 -107 -379 -299 -699 -417 -246 -91 -565 -166 -878 -205 -127 -16 -384
-41 -425 -41 -4 0 -9 51 -11 113 -4 103 -6 117 -31 154 -16 24 -44 49 -70 62
-41 19 -60 21 -268 21 -208 0 -227 -2 -268 -21 -26 -13 -54 -38 -70 -62 -25
-37 -27 -51 -31 -155 l-3 -114 -87 7 c-322 24 -606 68 -875 135 -145 36 -160
38 -186 25 -30 -15 -40 -33 -40 -69 0 -44 39 -64 205 -106 248 -62 570 -111
896 -136 l86 -6 6 -57 c22 -201 172 -341 367 -341 195 0 345 140 367 342 l6
56 91 7 c717 52 1327 217 1746 473 l65 40 3 -742 c2 -407 0 -760 -3 -782 -11
-80 -85 -159 -170 -183 -26 -7 -188 -11 -477 -11 l-437 0 -20 -26 c-28 -35
-26 -69 4 -99 l24 -25 435 0 c284 0 453 4 488 11 121 26 217 103 271 217 l32
67 3 844 2 843 40 45 c22 25 50 70 62 102 l23 56 0 610 c0 575 -1 613 -19 661
-42 112 -131 198 -245 234 -60 19 -90 20 -717 20 l-654 0 0 210 c0 193 -2 214
-21 255 -28 59 -81 104 -189 160 -88 45 -280 115 -317 115 -36 0 -73 -38 -73
-74 0 -45 20 -60 130 -96 115 -39 253 -105 291 -141 l29 -27 0 -201 0 -201
-85 0 -85 0 0 144 c0 172 -4 179 -112 224 -245 102 -544 120 -823 50 -111 -27
-221 -75 -245 -105 -18 -23 -20 -41 -20 -169 l0 -144 -85 0 -85 0 0 196 c0
113 4 203 10 214 6 11 38 36 72 56 190 111 454 174 726 174 86 0 101 3 117 20
25 28 23 76 -4 103 -19 20 -33 22 -139 24 -64 0 -151 -3 -192 -8z m460 -502
c52 -14 112 -32 133 -40 l37 -16 0 -110 0 -111 -450 0 -450 0 0 111 0 110 34
14 c50 21 173 54 242 65 32 5 127 7 209 5 118 -3 170 -9 245 -28z m-70 -2302
c9 -10 11 -70 8 -222 -3 -207 -3 -208 -31 -256 -15 -26 -47 -60 -69 -75 -36
-23 -51 -27 -118 -27 -67 0 -82 4 -118 27 -22 15 -54 49 -69 75 -28 48 -28 49
-31 256 -3 152 -1 212 8 222 10 12 49 15 210 15 161 0 200 -3 210 -15z"/>
</g>
</svg>
