<svg width="282" height="209" viewBox="0 0 282 209" fill="none" xmlns="http://www.w3.org/2000/svg">
<path d="M33.1353 126.32V143.76C33.1353 144.133 33.3753 144.373 33.8553 144.48C35.6686 144.693 37.1086 144.8 38.1753 144.8C42.0153 144.8 44.9753 143.92 47.0553 142.16C49.1886 140.347 50.2553 137.84 50.2553 134.64C50.2553 128.293 46.2286 125.12 38.1753 125.12C36.842 125.12 35.3753 125.253 33.7753 125.52C33.3486 125.627 33.1353 125.893 33.1353 126.32ZM24.3353 174C23.1086 174 22.042 173.547 21.1353 172.64C20.2286 171.733 19.7753 170.667 19.7753 169.44V120.56C19.7753 119.28 20.202 118.133 21.0553 117.12C21.9086 116.107 22.9753 115.547 24.2553 115.44C28.7886 115.013 33.162 114.8 37.3753 114.8C54.442 114.8 62.9753 121.147 62.9753 133.84C62.9753 140.72 60.9753 145.947 56.9753 149.52C53.0286 153.04 47.2153 154.8 39.5353 154.8C37.5086 154.8 35.6153 154.72 33.8553 154.56C33.3753 154.56 33.1353 154.773 33.1353 155.2V169.44C33.1353 170.667 32.682 171.733 31.7753 172.64C30.8686 173.547 29.802 174 28.5753 174H24.3353ZM92.8209 143.6C91.5409 141.627 89.5676 140.64 86.9009 140.64C84.2343 140.64 82.2343 141.627 80.9009 143.6C79.6209 145.573 78.9809 148.773 78.9809 153.2C78.9809 157.627 79.6209 160.827 80.9009 162.8C82.2343 164.773 84.2343 165.76 86.9009 165.76C89.5676 165.76 91.5409 164.773 92.8209 162.8C94.1543 160.827 94.8209 157.627 94.8209 153.2C94.8209 148.773 94.1543 145.573 92.8209 143.6ZM102.341 169.12C98.6609 172.907 93.5143 174.8 86.9009 174.8C80.2876 174.8 75.1409 172.907 71.4609 169.12C67.7809 165.333 65.9409 160.027 65.9409 153.2C65.9409 146.373 67.7809 141.067 71.4609 137.28C75.1409 133.493 80.2876 131.6 86.9009 131.6C93.5143 131.6 98.6609 133.493 102.341 137.28C106.021 141.067 107.861 146.373 107.861 153.2C107.861 160.027 106.021 165.333 102.341 169.12ZM128.576 174.8C123.883 174.8 120.469 173.493 118.336 170.88C116.256 168.267 115.216 163.787 115.216 157.44V136.96C115.216 135.733 115.669 134.667 116.576 133.76C117.483 132.853 118.549 132.4 119.776 132.4H123.296C124.523 132.4 125.589 132.853 126.496 133.76C127.403 134.667 127.856 135.733 127.856 136.96V156.56C127.856 159.653 128.256 161.787 129.056 162.96C129.909 164.08 131.349 164.64 133.376 164.64C135.243 164.64 136.949 163.893 138.496 162.4C140.043 160.853 140.816 159.2 140.816 157.44V136.96C140.816 135.733 141.269 134.667 142.176 133.76C143.083 132.853 144.149 132.4 145.376 132.4H149.216C150.443 132.4 151.509 132.853 152.416 133.76C153.323 134.667 153.776 135.733 153.776 136.96V169.44C153.776 170.667 153.323 171.733 152.416 172.64C151.509 173.547 150.443 174 149.216 174H145.936C144.656 174 143.563 173.573 142.656 172.72C141.803 171.813 141.349 170.72 141.296 169.44V168.8C141.296 168.747 141.269 168.72 141.216 168.72L141.056 168.88C137.589 172.827 133.429 174.8 128.576 174.8ZM177.006 148.24V158.16C177.006 159.92 177.806 161.547 179.406 163.04C181.059 164.48 182.926 165.2 185.006 165.2C187.459 165.2 189.406 164.213 190.846 162.24C192.286 160.213 193.006 157.2 193.006 153.2C193.006 145.2 190.339 141.2 185.006 141.2C182.926 141.2 181.059 141.947 179.406 143.44C177.806 144.88 177.006 146.48 177.006 148.24ZM168.926 191.6C167.699 191.6 166.633 191.147 165.726 190.24C164.819 189.333 164.366 188.267 164.366 187.04V136.96C164.366 135.733 164.819 134.667 165.726 133.76C166.633 132.853 167.699 132.4 168.926 132.4H172.126C173.406 132.4 174.499 132.853 175.406 133.76C176.313 134.613 176.793 135.68 176.846 136.96V137.6C176.846 137.653 176.873 137.68 176.926 137.68L177.086 137.52C180.499 133.573 184.606 131.6 189.406 131.6C194.366 131.6 198.313 133.467 201.246 137.2C204.233 140.933 205.726 146.267 205.726 153.2C205.726 159.92 204.179 165.2 201.086 169.04C198.046 172.88 194.153 174.8 189.406 174.8C184.979 174.8 181.033 173.173 177.566 169.92C177.513 169.867 177.459 169.84 177.406 169.84C177.353 169.84 177.326 169.867 177.326 169.92V187.04C177.326 188.267 176.873 189.333 175.966 190.24C175.059 191.147 173.993 191.6 172.766 191.6H168.926ZM219.638 155.92C218.412 155.92 217.345 155.467 216.438 154.56C215.532 153.653 215.078 152.587 215.078 151.36V150.24C215.078 149.013 215.532 147.947 216.438 147.04C217.345 146.133 218.412 145.68 219.638 145.68H232.678C233.158 145.68 233.398 145.44 233.398 144.96V132.16C233.398 130.933 233.825 129.867 234.678 128.96C235.585 128.053 236.652 127.6 237.878 127.6H239.798C241.025 127.6 242.065 128.053 242.918 128.96C243.825 129.867 244.278 130.933 244.278 132.16V144.96C244.278 145.44 244.518 145.68 244.998 145.68H258.038C259.265 145.68 260.332 146.133 261.238 147.04C262.145 147.947 262.598 149.013 262.598 150.24V151.36C262.598 152.587 262.145 153.653 261.238 154.56C260.332 155.467 259.265 155.92 258.038 155.92H244.998C244.518 155.92 244.278 156.16 244.278 156.64V169.44C244.278 170.667 243.825 171.733 242.918 172.64C242.065 173.547 241.025 174 239.798 174H237.878C236.652 174 235.585 173.547 234.678 172.64C233.825 171.733 233.398 170.667 233.398 169.44V156.64C233.398 156.16 233.158 155.92 232.678 155.92H219.638Z" fill="white"/>
<path fill-rule="evenodd" clip-rule="evenodd" d="M104.072 47.0181C102.122 47.0181 100.542 48.5996 100.542 50.5507C100.542 52.5018 102.122 54.0834 104.072 54.0834C106.026 54.0834 107.607 52.5018 107.607 50.5507C107.607 48.5996 106.026 47.0181 104.072 47.0181ZM103.877 19.1755C108.309 19.4353 114.08 22.5978 118.958 27.8646L121.033 30.3586L123.632 29.7023L128.307 28.8218L128.874 30.252C129.368 31.2802 129.936 32.2674 130.568 33.2056L131.756 34.7914L131.404 35.2933C131.309 35.5071 131.257 35.7455 131.257 36.0023C131.257 36.9392 132.089 37.8773 133.077 37.8191V37.8204C137.34 37.5618 141.62 37.4257 145.874 37.7511C149.487 38.041 153.065 38.6997 156.544 39.7163C158.797 40.364 161.015 41.1269 163.216 41.9406C164.139 42.282 165.209 41.5601 165.451 40.6771C165.659 39.9148 165.361 39.2297 164.81 38.7922L164.49 38.6114L165.035 38.2033C166.339 37.1255 167.531 35.9085 168.58 34.5757L168.701 34.4005L169.147 34.599C181.515 40.7182 190.176 50.5501 192.147 61.9115L192.212 62.3938L192.29 62.3539C195.396 60.512 197.939 57.6711 199.468 53.9847C199.754 53.2475 199.971 52.4846 200.113 51.7076C200.517 49.7167 203.363 49.751 203.744 51.7456C204.966 58.1705 202.666 64.7211 197.311 68.2948C195.933 69.2158 194.447 69.8727 192.913 70.2789L192.333 70.3997L192.147 71.825C190.176 83.1864 181.515 93.0183 169.147 99.1381L168.636 99.3642L168.762 100.62V106.092C168.762 111.43 164.434 115.758 159.096 115.758C153.758 115.758 149.427 111.43 149.427 106.092V105.073L144.869 105.583C143.084 105.716 141.269 105.784 139.436 105.784C137.6 105.784 135.789 105.716 134.004 105.583L129.442 105.073V106.092C129.442 111.43 125.114 115.758 119.776 115.758C114.435 115.758 110.107 111.43 110.107 106.092V100.62L110.233 99.3642L109.726 99.1381C100.893 94.7672 93.9481 88.5016 89.984 81.1379L89.0612 79.2597L88.4153 79.4601C87.7958 79.587 87.1549 79.6531 86.5004 79.6531C81.2545 79.6531 77 75.4005 77 70.1545V63.5826C77 58.336 81.2545 54.0827 86.5004 54.0827C87.1549 54.0827 87.7958 54.1495 88.4153 54.2764L89.0526 54.4743L89.0869 54.3867C91.8034 48.5102 96.3826 43.2624 102.313 39.0226L102.495 38.8988L102.027 38.3363C96.8545 31.3911 95.3734 23.9343 98.8735 20.6964C100.125 19.5395 101.863 19.0579 103.877 19.1755ZM149.517 5.38689V8.31656C147.759 8.48323 146.351 9.07333 145.298 10.0869C144.241 11.1004 143.712 12.3897 143.712 13.9541C143.712 14.8892 143.86 15.6852 144.159 16.342C144.453 16.9995 144.877 17.578 145.436 18.078C145.991 18.5781 146.654 19.018 147.42 19.3973C148.188 19.7766 149.028 20.1517 149.933 20.5218C150.843 20.8925 151.476 21.2859 151.835 21.702C152.199 22.1187 152.377 22.6928 152.377 23.4245C152.377 24.0814 152.199 24.5973 151.835 24.9723C151.476 25.3474 150.982 25.5343 150.349 25.5343C149.492 25.5343 148.824 25.2591 148.356 24.7082C147.893 24.1574 147.659 23.3546 147.659 22.2988H142.976C142.976 24.2156 143.517 25.7591 144.596 26.9302C145.675 28.1012 147.221 28.793 149.24 29.0056V31.8109H151.449V29.0197C153.178 28.8536 154.547 28.2703 155.552 27.2702C156.558 26.2702 157.06 24.9791 157.06 23.3963C157.06 22.4612 156.899 21.6603 156.588 20.9942C156.271 20.3275 155.838 19.7442 155.279 19.2441C154.725 18.7447 154.066 18.298 153.304 17.9046C152.537 17.5112 151.727 17.1313 150.865 16.7661C150.003 16.4003 149.379 16.0161 148.989 15.6135C148.603 15.2109 148.408 14.6667 148.408 13.9823C148.408 13.3064 148.577 12.7757 148.915 12.3921C149.253 12.0079 149.725 11.8161 150.336 11.8161C151.021 11.8161 151.549 12.0753 151.922 12.5931C152.29 13.1115 152.476 13.8523 152.476 14.815H157.168C157.168 13.0564 156.687 11.6047 155.717 10.4619C154.751 9.31905 153.421 8.62233 151.727 8.37232V5.38689H149.517ZM150.072 0C161.154 0 170.135 8.97958 170.135 20.0567C170.135 26.9798 166.625 33.0836 161.288 36.688L160.478 37.1818L158.494 36.5072C156.57 35.9263 154.63 35.4226 152.654 35.0335C148.798 34.2945 144.877 33.9243 140.948 33.9274C139.636 33.9219 138.323 33.9458 137.01 33.9917L135.724 34.0549L134.593 32.8146C131.734 29.3475 130.013 24.9025 130.013 20.0567C130.013 8.97958 138.994 0 150.072 0Z" fill="white"/>
</svg>
