<svg width="33" height="33" viewBox="0 0 33 33" fill="none" xmlns="http://www.w3.org/2000/svg">
<circle cx="16.5" cy="16.5" r="16.5" fill="#820AD1"/>
<g clip-path="url(#clip0_51_598)">
<path d="M9.97321 12.1439C10.6684 11.4219 11.588 11 12.6748 11C14.7868 11 16.186 12.5223 16.4544 14.8057C16.5424 15.5495 16.5424 16.5933 16.538 17.8025V22.7173H13.634V19.3639C13.634 19.3639 13.6296 16.4933 13.612 15.954C13.5328 13.6183 12.1336 12.1482 9.97321 12.1439C9.31761 12.8311 8.97001 13.6618 8.91721 14.9362C8.90841 15.1145 8.91281 15.7452 8.91281 16.5716C8.91281 17.0022 8.91721 17.485 8.91721 17.9895V22.7216H6.01321V17.5589C6.01321 17.3806 6.00881 17.2022 6.00881 17.0239C6.00441 16.6629 5.99561 16.3019 6.01321 15.9409C6.04401 15.3407 6.14961 14.7492 6.43561 14.2012C7.08241 12.9485 8.41121 12.1395 9.82361 12.1395C9.87201 12.1395 9.92041 12.1439 9.97321 12.1439Z" fill="white"/>
<path d="M27.9867 18.0591C28.0043 17.6981 27.9999 17.3371 27.9911 16.9761C27.9867 16.7978 27.9867 16.6194 27.9867 16.4411V11.2784H25.0827V16.0105C25.0827 16.515 25.0827 16.9978 25.0871 17.4284C25.0915 18.2592 25.0915 18.8898 25.0827 19.0638C25.0299 20.3382 24.6823 21.1689 24.0311 21.8518C21.8707 21.8518 20.4671 20.3817 20.3923 18.046C20.3747 17.5111 20.3659 16.1758 20.3659 14.6361V11.274L17.4619 11.2784V16.1932C17.4619 17.4023 17.4619 18.4505 17.5455 19.1899C17.8139 21.4734 19.2131 22.9957 21.3251 22.9957C22.4075 22.9957 23.3315 22.5738 24.0267 21.8518C24.0751 21.8518 24.1235 21.8561 24.1763 21.8561C25.5931 21.8561 26.9175 21.0471 27.5643 19.7945C27.8503 19.2465 27.9559 18.6593 27.9867 18.0591Z" fill="white"/>
</g>
<defs>
<clipPath id="clip0_51_598">
<rect width="22" height="12" fill="white" transform="translate(6 11)"/>
</clipPath>
</defs>
</svg>
