<svg width="33" height="33" viewBox="0 0 33 33" fill="none" xmlns="http://www.w3.org/2000/svg">
<circle cx="16.5" cy="16.5" r="16.5" fill="#21C25E"/>
<g clip-path="url(#clip0_21_72)">
<path fill-rule="evenodd" clip-rule="evenodd" d="M11.4525 14.235V17.8481H13.8246C14.3484 17.8481 14.8269 17.6418 15.1723 17.3065C15.5043 16.9843 15.7116 16.5383 15.7116 16.0415C15.7116 15.5447 15.5043 15.0987 15.1723 14.7766C14.8269 14.4413 14.3484 14.235 13.8246 14.235H11.4525ZM9.03735 22.9832V14.235H11.4481V11.9967H13.8246C14.9517 11.9967 15.9872 12.4462 16.7397 13.1766C17.4943 13.9091 17.9657 14.9193 17.9657 16.0415C17.9657 17.1638 17.4943 18.1739 16.7397 18.9064C15.9872 19.6368 14.9517 20.0863 13.8246 20.0863H11.4525V22.9832H9.03735Z" fill="white"/>
<path fill-rule="evenodd" clip-rule="evenodd" d="M20.1198 10.7762V13.8698H23.2353V10.7762H20.1198ZM20.8845 11.5356H22.4705V13.1104H20.8845V11.5356ZM19.355 10.0168H24V14.6292H19.355V10.0168Z" fill="white"/>
</g>
<defs>
<clipPath id="clip0_21_72">
<rect width="15" height="13" fill="white" transform="translate(9 10)"/>
</clipPath>
</defs>
</svg>
