<?xml version="1.0" standalone="no"?>
<!DOCTYPE svg PUBLIC "-//W3C//DTD SVG 20010904//EN"
 "http://www.w3.org/TR/2001/REC-SVG-20010904/DTD/svg10.dtd">
<svg version="1.0" xmlns="http://www.w3.org/2000/svg"
 width="512.000000pt" height="512.000000pt" viewBox="0 0 512.000000 512.000000"
 preserveAspectRatio="xMidYMid meet">

<g transform="translate(0.000000,512.000000) scale(0.100000,-0.100000)"
fill="#000000" stroke="none">
<path d="M3621 5108 c-19 -7 -54 -30 -77 -52 -35 -34 -46 -56 -68 -126 -58
-194 -67 -244 -56 -296 20 -87 67 -140 152 -170 86 -30 170 -12 232 49 59 60
156 290 156 371 0 95 -49 165 -145 206 -59 26 -146 34 -194 18z m120 -149 c85
-29 88 -61 16 -224 -43 -99 -57 -121 -80 -129 -35 -13 -74 1 -99 34 -19 26
-19 27 17 160 46 169 62 187 146 159z"/>
<path d="M2310 4761 c-76 -25 -86 -33 -430 -346 -295 -269 -350 -324 -350
-357 0 -36 40 -78 75 -78 19 0 75 46 228 188 111 103 267 244 345 314 196 175
203 175 377 43 410 -311 820 -720 1147 -1143 103 -133 118 -167 99 -224 -33
-97 -1151 -1267 -1675 -1752 l-105 -98 -35 12 c-20 6 -38 15 -40 19 -3 4 79
87 182 183 248 234 900 892 1135 1146 212 230 214 233 153 304 -52 60 -70 105
-74 184 -5 96 20 154 99 228 82 75 81 93 -11 202 -210 247 -675 697 -749 726
-34 12 -71 -5 -98 -47 -25 -38 -91 -86 -142 -103 -52 -18 -140 -14 -190 8 -23
11 -66 38 -94 61 -65 51 -78 48 -176 -39 -305 -274 -1040 -1000 -1370 -1355
l-174 -187 -24 36 -24 35 118 127 c244 261 452 474 699 717 228 225 254 254
254 283 0 43 -30 72 -75 72 -32 0 -51 -16 -212 -174 l-178 -173 -200 -12
c-322 -20 -382 -28 -452 -61 -107 -49 -189 -141 -226 -251 -31 -92 -73 -633
-87 -1117 -15 -549 17 -1325 70 -1697 28 -194 171 -336 365 -364 39 -6 180
-17 315 -26 845 -53 1719 -58 2525 -14 228 12 248 19 253 82 2 26 -3 42 -19
58 -21 21 -27 21 -153 15 -72 -4 -214 -11 -316 -16 -681 -35 -1785 -17 -2499
40 -140 11 -185 27 -244 86 -50 50 -70 98 -75 175 -5 88 17 170 82 304 95 193
257 414 475 648 110 117 120 139 76 182 -39 40 -69 33 -137 -33 -151 -143
-370 -417 -473 -591 l-60 -101 -6 38 c-37 214 -39 1415 -3 1754 l6 58 61 -103
c312 -518 967 -1111 1532 -1387 145 -71 319 -140 354 -140 67 0 370 136 570
255 523 313 1104 880 1344 1314 l35 63 6 -38 c38 -251 38 -1551 0 -1783 l-5
-34 -48 81 c-110 185 -264 383 -440 564 -82 86 -109 108 -131 108 -43 0 -74
-31 -74 -73 0 -31 12 -48 102 -142 259 -271 466 -579 532 -790 68 -219 -27
-385 -234 -411 -42 -5 -66 -13 -83 -30 -26 -26 -28 -42 -12 -78 18 -39 56 -50
133 -38 165 26 288 125 345 278 61 162 113 1185 92 1805 -16 499 -55 993 -85
1093 -47 156 -201 279 -365 293 l-71 6 -127 150 c-177 210 -444 484 -663 679
-131 117 -405 332 -462 363 -54 30 -158 43 -208 26z m491 -745 c133 -121 381
-372 465 -471 l51 -60 -35 -45 c-19 -25 -46 -70 -61 -100 -23 -49 -26 -67 -26
-171 0 -113 1 -116 38 -193 l39 -77 -53 -57 c-490 -528 -1389 -1422 -1429
-1422 -29 0 -282 162 -451 288 l-46 34 26 47 c35 61 36 165 4 227 -46 87 -120
135 -220 142 -51 4 -70 0 -115 -22 -29 -14 -60 -31 -69 -37 -13 -10 -30 3
-103 79 -101 104 -263 297 -279 329 -9 20 4 37 129 170 466 494 844 872 1277
1275 l147 138 45 -29 c146 -92 366 -76 495 37 19 17 37 31 41 32 3 0 61 -51
130 -114z m-2006 -648 c-22 -24 -96 -101 -165 -173 -69 -71 -168 -175 -219
-229 -72 -78 -94 -97 -102 -85 -25 39 -59 174 -59 238 0 117 72 221 179 255
42 14 216 31 351 35 l54 1 -39 -42z m3161 -27 c53 -38 70 -59 94 -114 52 -117
8 -293 -131 -523 -250 -414 -739 -891 -1233 -1201 -110 -69 -326 -178 -420
-212 l-59 -22 399 394 c615 608 1276 1314 1326 1417 32 67 31 169 -3 238 -14
28 -23 52 -19 52 4 0 25 -13 46 -29z m-2797 -1357 c35 -29 47 -76 32 -117
l-11 -28 -28 20 c-15 11 -52 43 -82 71 -53 48 -54 51 -36 65 31 24 90 19 125
-11z"/>
<path d="M2612 3752 c-61 -22 -114 -68 -145 -127 -17 -31 -22 -58 -22 -115 0
-88 22 -137 81 -190 53 -46 99 -63 174 -64 144 -1 250 107 250 254 0 102 -43
177 -129 224 -68 36 -139 43 -209 18z m160 -168 c55 -54 24 -162 -51 -179 -44
-9 -98 18 -118 59 -52 109 81 203 169 120z"/>
<path d="M1890 3484 c-158 -24 -264 -62 -377 -136 -193 -126 -337 -333 -384
-553 -20 -96 -16 -257 10 -350 56 -200 189 -363 366 -446 168 -80 380 -91 565
-30 269 87 484 304 570 576 32 99 39 293 15 399 -61 275 -279 482 -560 531
-83 14 -149 17 -205 9z m240 -170 c185 -54 326 -198 375 -384 19 -72 19 -230
0 -305 -8 -33 -36 -103 -62 -155 -88 -179 -263 -320 -459 -370 -92 -24 -213
-26 -302 -5 -195 46 -356 208 -403 405 -17 75 -15 211 5 290 37 148 141 307
260 397 74 56 202 117 276 132 30 6 64 13 75 15 37 9 180 -4 235 -20z"/>
<path d="M1553 3055 c-31 -22 -37 -61 -15 -99 18 -30 18 -35 3 -62 -9 -18 -16
-54 -16 -94 0 -53 5 -74 27 -110 26 -45 76 -81 129 -94 39 -9 130 19 242 74
56 28 112 50 124 50 66 0 85 -96 34 -167 -37 -51 -81 -84 -148 -113 -59 -25
-80 -59 -64 -103 22 -58 73 -61 174 -9 65 34 77 37 93 25 31 -22 80 -16 103
13 26 33 26 50 1 91 -19 32 -19 33 0 75 23 51 26 153 6 202 -21 51 -73 103
-122 122 -66 25 -133 15 -235 -37 -46 -23 -106 -50 -134 -60 -46 -16 -52 -16
-67 -2 -37 33 -12 94 65 157 50 41 63 72 46 110 -18 38 -60 52 -100 32 -29
-14 -35 -15 -55 -1 -29 19 -64 19 -91 0z"/>
<path d="M4370 4599 c-54 -24 -242 -206 -273 -264 -29 -55 -29 -145 1 -201 41
-80 130 -135 213 -133 58 1 96 21 224 118 104 78 128 101 149 144 50 99 23
203 -76 292 -75 67 -154 82 -238 44z m152 -169 c47 -50 50 -85 11 -122 -66
-61 -208 -158 -230 -158 -34 0 -83 51 -83 86 0 22 22 50 103 131 122 122 138
127 199 63z"/>
<path d="M4709 3771 c-81 -21 -161 -46 -179 -57 -148 -86 -142 -315 9 -398 58
-31 102 -33 275 -11 138 17 195 40 236 97 42 57 52 119 35 204 -18 86 -55 141
-115 170 -75 37 -102 37 -261 -5z m207 -142 c22 -24 33 -86 22 -120 -13 -37
-38 -45 -187 -60 -127 -12 -132 -12 -152 7 -11 11 -22 36 -25 55 -10 58 13 74
161 112 71 19 137 32 147 29 9 -2 24 -13 34 -23z"/>
</g>
</svg>
