<svg width="683" height="684" viewBox="0 0 683 684" fill="none" xmlns="http://www.w3.org/2000/svg">
<g clip-path="url(#clip0_376_56)">
<path d="M436 1.4333C434.934 1.8333 336.667 99.4333 217.6 218.367C-9.19984 445.033 -1.8665 437.433 0.666829 446.1C1.7335 449.7 227.734 676.633 234.4 680.767C244.534 687.033 227.2 703.3 464.934 465.567C691.867 238.633 684.534 246.233 682 237.567C680.934 234.233 458.934 10.9 450.134 4.36663C445.2 0.766631 440.667 -0.166702 436 1.4333ZM592.934 233.167C597.2 237.433 597.6 238.367 596.934 243.433C596.267 248.5 593.867 251.3 565.067 280.1C544.934 300.233 532.534 311.7 529.734 312.633C521.734 315.3 512 307.967 512 299.167C512 293.7 516.134 288.767 546.267 258.767C576.534 228.767 576.8 228.5 582.534 228.5C587.334 228.5 589.067 229.3 592.934 233.167ZM334.134 260.633C362.667 269.433 389.867 290.5 408.267 317.967C426.267 345.033 431.6 376.9 421.734 398.1C416.534 409.3 408.8 416.9 397.6 422.233C389.067 426.367 388 426.5 372 426.367C356.934 426.233 354.267 425.833 344.534 422.367C298.934 405.567 260.8 359.967 256.667 317.033C253.734 287.7 270.4 263.567 297.6 257.833C306 256.1 323.734 257.433 334.134 260.633ZM162 371.7C166.667 373.7 170.667 379.567 170.667 384.5C170.667 389.967 166.534 394.9 136.4 424.767C107.734 453.3 105.6 455.167 100.934 455.167C94.2668 455.167 90.0002 452.9 87.3335 447.833C82.5335 439.167 83.8668 437.3 117.6 403.567C144.8 376.5 151.867 370.233 156.4 369.967C156.934 369.833 159.467 370.633 162 371.7Z" fill="#21C25E"/>
<path d="M42.0004 330.5C23.7337 337.3 7.06703 344.1 5.06703 345.7C-0.666301 350.367 -0.932967 355.833 4.00037 369.433C6.26703 375.967 8.66703 382.1 9.3337 383.167C10.4004 384.767 18.1337 377.7 44.267 351.433C62.8004 333.033 77.3337 317.833 76.667 317.967C75.867 318.1 60.4004 323.7 42.0004 330.5Z" fill="#21C25E"/>
<path d="M578.667 391.833C548.267 422.233 524 447.167 524.934 447.167C525.734 447.167 538.934 442.633 554 437.033C583.867 426.1 587.467 425.567 593.2 431.7C599.467 438.367 597.6 450.1 589.467 453.833C580.934 457.833 514.267 481.833 511.867 481.833C508.134 481.833 503.867 479.433 500.667 475.567L498 472.367L439.334 531.033C407.2 563.3 381.067 589.967 381.334 590.233C381.867 590.633 636 497.433 671.067 483.967C677.867 481.433 682.667 475.7 682.667 470.367C682.667 467.433 636.534 339.3 634.8 337.567C634.4 337.033 609.067 361.433 578.667 391.833Z" fill="#21C25E"/>
<path d="M74.9335 564.5C78.1335 573.833 115.067 674.9 116.133 676.767C117.6 679.567 124.133 683.167 127.867 683.167C130.533 683.167 174.533 667.567 176.267 665.967C176.8 665.433 154.133 641.967 125.733 613.833C97.4668 585.567 74.6668 563.433 74.9335 564.5Z" fill="#21C25E"/>
</g>
<defs>
<clipPath id="clip0_376_56">
<rect width="682.667" height="682.667" fill="white" transform="translate(0 0.5)"/>
</clipPath>
</defs>
</svg>
