<svg width="33" height="33" viewBox="0 0 33 33" fill="none" xmlns="http://www.w3.org/2000/svg">
<circle cx="16.5" cy="16.5" r="16.5" fill="#FE0000"/>
<path d="M16.8052 7.00308C16.267 7.25968 15.6895 8.16464 15.6895 9.42333C15.6895 12.7846 19.5033 14.4226 19.5033 17.3686C19.5033 17.3686 19.5155 19.1165 18.5623 19.4833V18.7867C18.5623 16.6598 14.4312 14.044 14.4312 11.7091V10.7923C13.893 11.0489 13.3155 11.9781 13.3155 13.2247C13.3155 16.4393 17.1293 17.8939 17.1293 21.1699C17.1293 21.1699 17.1293 22.5388 16.2861 22.9788C16.3107 22.9053 16.3107 22.82 16.3107 22.7465C16.3107 22.5998 16.2861 22.4775 16.2861 22.4775C16.2007 20.974 12.2888 17.234 12.2888 16.06C8.84812 17.002 6 18.7253 6 20.8523C6 23.7004 10.6692 25.9828 16.4147 25.9828C16.4514 25.9828 16.4757 26.0074 16.5125 25.9828C22.3183 25.974 27 23.6026 27 20.7427C27 18.6158 24.3717 16.7943 20.656 16.0242C20.766 15.743 20.766 15.4986 20.766 15.4986C20.766 12.8342 16.8055 10.242 16.8055 7.91986L16.8052 7.00308Z" fill="white"/>
</svg>
