<svg width="400" height="258" viewBox="0 0 400 258" fill="none" xmlns="http://www.w3.org/2000/svg">
<path d="M3.3218 16.7261C9.58847 4.19273 22.9218 -1.5406 36.5218 2.4594C41.4551 3.92606 44.9218 6.32606 49.9885 11.5261C53.7218 15.3927 88.6552 55.9261 127.722 101.659C166.788 147.259 199.055 184.593 199.588 184.459C200.122 184.459 231.988 147.526 270.522 102.459C358.922 -1.1406 354.388 3.79273 362.922 1.2594C387.055 -5.9406 408.122 19.1261 396.388 40.9927C392.122 48.8594 221.722 247.526 215.322 252.059C203.322 260.593 189.188 258.859 178.255 247.659C174.922 244.193 134.122 196.726 87.5885 142.326C24.1218 68.1927 2.65513 42.1927 1.45513 38.1927C-0.944868 30.1927 -0.411532 24.4594 3.3218 16.7261Z" fill="black"/>
</svg>
