<svg width="401" height="258" viewBox="0 0 401 258" fill="none" xmlns="http://www.w3.org/2000/svg">
<path d="M4.17483 16.8728C10.4415 4.33946 23.7748 -1.39388 37.3748 2.60612C42.3082 4.07279 45.7748 6.47279 50.8415 11.6728C54.5748 15.5395 89.5082 56.0728 128.575 101.806C167.642 147.406 199.908 184.739 200.442 184.606C200.975 184.606 232.842 147.673 271.375 102.606C359.775 -0.993874 355.242 3.93946 363.775 1.40612C387.908 -5.79388 408.975 19.2728 397.242 41.1395C392.975 49.0061 222.575 247.673 216.175 252.206C204.175 260.739 190.042 259.006 179.108 247.806C175.775 244.339 134.975 196.873 88.4415 142.473C24.9748 68.3395 3.50816 42.3395 2.30816 38.3395C-0.0918402 30.3395 0.441495 24.6061 4.17483 16.8728Z" fill="#21C25E"/>
</svg>
