<svg width="452" height="452" viewBox="0 0 452 452" fill="none" xmlns="http://www.w3.org/2000/svg">
<g clip-path="url(#clip0_373_73)">
<path d="M174.62 37.4312L117.502 74.9508L81.0421 75.3039C41.2273 75.657 40.5211 75.7453 29.5742 81.1305C19.775 86.0742 10.9468 94.8141 6.17965 104.613C0.529652 116.09 0.882778 106.467 0.882778 263.961C0.882778 422.161 0.529653 411.126 6.53278 423.309C12.3593 434.962 23.1297 444.408 36.1953 449.175L42.8164 451.559L222.734 451.823L402.651 452L404.769 449.881L406.976 447.674V400.973V354.184L418.718 353.831C429.4 353.478 430.812 353.302 435.491 350.918C441.936 347.74 447.762 341.384 450.146 334.939C451.912 330.26 452 328.406 452 278.527C452 232.445 451.823 226.53 450.499 223.175C447.233 214.788 440.523 208.079 432.401 205.166C430.194 204.371 424.103 203.577 417.835 203.312L406.976 202.782V141.25V79.718L404.681 77.5992L402.386 75.4805L378.197 75.2156L354.096 74.9508L348.711 58.0008C345.709 48.643 342.266 37.8726 341.03 33.9883C338.382 25.6016 336.263 22.9531 332.379 22.9531C330.878 22.9531 315.959 28.1617 299.362 34.518C282.765 40.8742 268.728 45.9062 268.11 45.6414C267.492 45.4648 260.871 35.6656 253.455 23.8359C245.952 12.0945 238.977 1.94218 238.006 1.23593C237.035 0.52968 235.181 -7.62939e-06 233.945 -7.62939e-06C232.533 -7.62939e-06 211.522 13.2422 174.62 37.4312ZM242.244 34.518C247.894 43.2578 252.661 50.85 252.749 51.2914C252.837 51.9094 130.833 99.0516 80.3359 117.944C79.6296 118.209 79.2765 118.209 79.5414 117.944C80.5125 116.973 230.944 18.5391 231.473 18.5391C231.738 18.5391 236.682 25.6898 242.244 34.518ZM328.318 43.4344C348.711 107.88 366.367 164.38 366.367 165.086C366.367 165.704 362.836 165.969 355.597 165.792L344.915 165.527L334.144 133.393C326.552 110.705 322.844 100.817 321.52 99.7578C320.549 98.9633 317.283 97.9922 314.369 97.7273C307.219 96.9328 302.098 94.3727 295.212 88.193C291.505 84.75 288.768 82.9844 287.355 82.9844C285.237 82.9844 264.755 90.4883 124.035 142.574L60.4726 166.145L52.7921 165.704C47.5836 165.351 43.4343 164.556 39.8148 163.055C33.4586 160.495 26.1312 155.198 27.7203 154.316C28.25 154.051 80.3359 134.099 143.457 110.087C206.578 85.9859 273.319 60.5609 291.769 53.4984C310.22 46.5242 325.758 40.6976 326.376 40.6976C326.905 40.6094 327.788 41.9336 328.318 43.4344ZM92.6953 90.6648C92.607 91.1062 75.8336 102.318 55.3523 115.737C24.189 136.041 17.9211 139.837 17.3031 138.69C16.7734 137.895 16.2437 133.834 16.0672 129.685C15.4492 117.679 18.9804 109.116 27.8086 100.729C33.4586 95.3437 40.0796 92.0773 47.3187 91.018C53.8515 90.0469 92.6953 89.782 92.6953 90.6648ZM391.969 128.008V165.969H387.555C383.759 165.969 382.964 165.704 382.258 163.938C381.022 161.025 359.305 92.0773 359.305 90.9297C359.305 90.4 364.778 90.0469 375.637 90.0469H391.969V128.008ZM297.243 108.321C299.891 109.557 304.129 111.058 306.601 111.676L311.191 112.647L319.755 137.807C324.434 151.579 328.318 163.585 328.318 164.38C328.406 165.88 322.58 165.969 216.995 165.88C145.311 165.88 106.114 165.527 107.262 164.998C108.233 164.556 148.577 149.548 196.867 131.627L284.707 99.1398L288.591 102.583C290.71 104.437 294.594 106.997 297.243 108.321ZM22.0703 170.471C24.2773 172.148 28.5148 174.62 31.5164 175.945C43.2578 181.241 33.5468 180.977 220.527 180.977H391.969V214.965V248.953H346.857C296.713 248.953 296.537 248.953 284.795 254.868C272.701 260.959 261.842 274.643 258.311 288.327C256.545 295.212 256.457 307.042 258.223 313.84C260.077 321.079 265.02 330.702 269.699 336.087C274.908 342.002 284.177 348.181 292.211 351.183L298.832 353.566L345.444 353.831L391.969 354.096V395.5V436.992H221.144C98.875 436.992 49.0843 436.727 45.7296 436.021C34.2531 433.549 24.6304 426.045 19.3336 415.363L16.332 409.184L16.0672 287.444C15.8906 189.452 16.0672 165.88 16.95 166.587C17.5679 167.116 19.8632 168.882 22.0703 170.471ZM424.986 218.937C437.61 221.851 441.318 237.3 431.43 245.51C428.605 247.805 421.631 249.13 414.039 248.777L407.418 248.512L407.153 234.387C407.065 226.706 407.153 219.82 407.33 219.202C407.859 217.878 419.601 217.613 424.986 218.937ZM436.992 294.771C436.992 328.848 436.992 329.024 434.962 332.026C433.902 333.703 431.254 335.91 429.047 337.058L425.074 339.088L362.836 338.823C301.569 338.559 300.509 338.559 296.007 336.705C285.148 332.202 276.85 323.198 273.495 312.251C268.11 294.418 276.144 275.967 293.005 267.669L299.627 264.402L364.072 263.961C421.455 263.52 428.959 263.343 432.137 262.019C434.079 261.224 435.933 260.518 436.374 260.518C436.727 260.43 436.992 275.879 436.992 294.771Z" fill="#21C25E"/>
<path d="M42.5514 209.403L40.874 216.73L42.7279 217.348C43.7873 217.613 50.8498 217.878 58.5303 217.966L72.3904 218.055V210.551V203.047H59.6779C52.7037 203.047 46.3475 202.782 45.6412 202.517C44.5818 202.164 43.9639 203.665 42.5514 209.403Z" fill="#21C25E"/>
<path d="M103.024 203.665C102.671 203.93 102.406 207.373 102.406 211.169V218.055H117.414H132.422V210.551V203.047H118.032C110.087 203.047 103.289 203.312 103.024 203.665Z" fill="#21C25E"/>
<path d="M163.32 210.551V218.055H178.328H193.424L193.159 210.727L192.895 203.488L178.152 203.223L163.32 203.047V210.551Z" fill="#21C25E"/>
<path d="M223.352 210.551V218.055H238.359H253.367V210.551V203.047H238.359H223.352V210.551Z" fill="#21C25E"/>
<path d="M284.001 203.665C283.648 203.93 283.383 207.373 283.383 211.169V218.055H298.391H313.398V210.551V203.047H299.009C291.063 203.047 284.266 203.312 284.001 203.665Z" fill="#21C25E"/>
<path d="M344.032 203.577C343.679 203.93 343.414 207.373 343.414 211.169V218.055H356.656H369.987L369.722 210.727L369.457 203.488L357.009 203.223C350.212 203.135 344.385 203.312 344.032 203.577Z" fill="#21C25E"/>
<path d="M42.5514 405.299C41.5804 409.36 40.9624 412.891 41.1389 413.156C41.4038 413.421 48.5546 413.774 57.0296 413.862L72.3905 414.216V406.623V399.031H60.296C53.5866 399.031 47.3186 398.766 46.2593 398.502C44.5819 398.06 44.2288 398.678 42.5514 405.299Z" fill="#21C25E"/>
<path d="M103.024 399.649C102.671 399.914 102.406 403.357 102.406 407.153V414.039H117.414H132.422V406.535V399.031H118.032C110.087 399.031 103.289 399.296 103.024 399.649Z" fill="#21C25E"/>
<path d="M163.32 406.535V414.039H178.328H193.336V406.535V399.031H178.328H163.32V406.535Z" fill="#21C25E"/>
<path d="M223.352 406.535V414.039H238.359H253.367V406.535V399.031H238.359H223.352V406.535Z" fill="#21C25E"/>
<path d="M283.383 406.535V414.039H298.391H313.398V406.535V399.031H298.391H283.383V406.535Z" fill="#21C25E"/>
<path d="M344.032 399.561C343.679 399.914 343.414 403.357 343.414 407.153V414.039H356.656H369.987L369.722 406.712L369.457 399.473L357.009 399.208C350.212 399.12 344.385 399.296 344.032 399.561Z" fill="#21C25E"/>
<path d="M299.45 281.264C291.77 285.06 287.002 292.476 286.914 300.686C286.914 309.691 290.975 316.753 298.567 320.991C304.659 324.257 313.575 324.61 319.137 321.608C332.291 314.634 335.822 298.479 326.641 286.914C320.461 279.145 308.631 276.673 299.45 281.264ZM313.487 295.124C315.341 296.537 316.93 299.626 316.93 301.922C316.93 304.57 312.251 308.984 309.426 308.984C306.071 308.984 301.922 304.57 301.922 301.039C301.922 295.654 309.249 291.858 313.487 295.124Z" fill="#21C25E"/>
</g>
<defs>
<clipPath id="clip0_373_73">
<rect width="452" height="452" fill="white"/>
</clipPath>
</defs>
</svg>
