<svg width="17" height="21" viewBox="0 0 17 21" fill="none" xmlns="http://www.w3.org/2000/svg">
<path d="M2.02188 15.1641V5.0547H4.17877e-06V15.1641H2.02188ZM11.1203 18.1969H5.0547V20.2188H11.1203V18.1969ZM14.1531 5.0547V15.1641H16.175V5.0547H14.1531ZM5.0547 2.02188H11.1203V4.17732e-06H5.0547V2.02188ZM16.175 5.0547C16.175 4.12969 16.177 3.33509 16.0921 2.70123C16.0032 2.03907 15.802 1.40319 15.2864 0.888619L13.8569 2.31809C13.9338 2.39492 14.0288 2.53241 14.0885 2.97115C14.1511 3.4372 14.1531 4.07308 14.1531 5.0547H16.175ZM11.1203 2.02188C12.102 2.02188 12.7368 2.0239 13.2039 2.08658C13.6426 2.14623 13.7801 2.24126 13.8569 2.31809L15.2864 0.888619C14.7708 0.373041 14.136 0.171864 13.4738 0.0829012C12.8389 -0.00201768 12.0453 4.17732e-06 11.1203 4.17732e-06V2.02188ZM11.1203 20.2188C12.0453 20.2188 12.8399 20.2208 13.4738 20.1359C14.136 20.0469 14.7718 19.8457 15.2864 19.3302L13.8569 17.9007C13.7801 17.9775 13.6426 18.0726 13.2039 18.1322C12.7368 18.1949 12.102 18.1969 11.1203 18.1969V20.2188ZM14.1531 15.1641C14.1531 16.1457 14.1511 16.7806 14.0885 17.2476C14.0288 17.6864 13.9338 17.8239 13.8569 17.9007L15.2864 19.3302C15.802 18.8146 16.0032 18.1797 16.0921 17.5176C16.177 16.8827 16.175 16.0891 16.175 15.1641H14.1531ZM4.17877e-06 15.1641C4.17877e-06 16.0891 -0.00201792 16.8837 0.082901 17.5176C0.171864 18.1797 0.373041 18.8156 0.88862 19.3302L2.31809 17.9007C2.24126 17.8239 2.14623 17.6864 2.08658 17.2476C2.0239 16.7816 2.02188 16.1457 2.02188 15.1641H4.17877e-06ZM5.0547 18.1969C4.07308 18.1969 3.43821 18.1949 2.97115 18.1322C2.53241 18.0726 2.39492 17.9775 2.31809 17.9007L0.88862 19.3302C1.4042 19.8457 2.03907 20.0469 2.70123 20.1359C3.3361 20.2208 4.12969 20.2188 5.0547 20.2188V18.1969ZM2.02188 5.0547C2.02188 4.07308 2.0239 3.43821 2.08658 2.97115C2.14623 2.53241 2.24126 2.39492 2.31809 2.31809L0.88862 0.888619C0.373041 1.4042 0.171864 2.03907 0.082901 2.70123C-0.00201792 3.3361 4.17877e-06 4.12969 4.17877e-06 5.0547H2.02188ZM5.0547 4.17732e-06C4.12969 4.17732e-06 3.33509 -0.00201768 2.70123 0.0829012C2.03907 0.171864 1.40319 0.373041 0.88862 0.888619L2.31809 2.31809C2.39492 2.24126 2.53241 2.14623 2.97115 2.08658C3.4372 2.0239 4.07308 2.02188 5.0547 2.02188V4.17732e-06Z" fill="black"/>
<path d="M5.55957 13.6478H8.08692M5.55957 9.60406H10.6143M5.55957 5.5603H10.6143" stroke="black" stroke-width="2.43344" stroke-linecap="round" stroke-linejoin="round"/>
</svg>
